<?xml version="1.0" encoding="UTF-8"?>
<svg version="1.1" xmlns="http://www.w3.org/2000/svg" width="204" height="203">
<path d="M0 0 C67.32 0 134.64 0 204 0 C204 66.99 204 133.98 204 203 C136.68 203 69.36 203 0 203 C0 136.01 0 69.02 0 0 Z " fill="#1D1D1D" transform="translate(0,0)"/>
<path d="M0 0 C4.38264282 3.63798139 6.84561006 7.74166089 9.1875 12.875 C9.6825 13.865 9.6825 13.865 10.1875 14.875 C11.08834328 25.03533074 9.63101049 32.60845454 4.0625 41.125 C-3.56183804 48.41784508 -9.8177569 50.71511493 -20.25952148 50.51733398 C-28.46907641 50.06944594 -33.62868322 47.47969215 -39.1875 41.4375 C-45.62581617 33.23355141 -46.82497464 25.09393008 -45.8125 14.875 C-43.20897208 6.06680275 -37.36608698 0.55358058 -29.625 -4 C-19.400416 -8.0898336 -8.86529529 -6.35764105 0 0 Z " fill="#252527" transform="translate(85.8125,34.125)"/>
<path d="M0 0 C4.38264282 3.63798139 6.84561006 7.74166089 9.1875 12.875 C9.6825 13.865 9.6825 13.865 10.1875 14.875 C11.08834328 25.03533074 9.63101049 32.60845454 4.0625 41.125 C-3.56183804 48.41784508 -9.8177569 50.71511493 -20.25952148 50.51733398 C-28.46907641 50.06944594 -33.62868322 47.47969215 -39.1875 41.4375 C-45.62581617 33.23355141 -46.82497464 25.09393008 -45.8125 14.875 C-43.20897208 6.06680275 -37.36608698 0.55358058 -29.625 -4 C-19.400416 -8.0898336 -8.86529529 -6.35764105 0 0 Z M-40.20703125 8.58203125 C-44.13728453 14.95654098 -43.69428691 22.68147523 -42.8125 29.875 C-40.5103861 37.06655936 -35.48493315 42.30516177 -28.9375 45.90625 C-22.97469972 48.50295335 -16.63852797 49.02096007 -10.38671875 47.1484375 C-2.63118456 43.94194773 2.72903631 39.51354114 6.265625 31.8203125 C8.52052157 24.61610904 8.57808386 16.71383072 5.1875 9.875 C0.45573915 2.72419288 -6.48548923 -1.422715 -14.8125 -3.125 C-25.58647692 -4.42874175 -33.50534178 0.37856263 -40.20703125 8.58203125 Z " fill="#D1D1D1" transform="translate(85.8125,34.125)"/>
<path d="M0 0 C3.95570528 0.58603041 6.15810357 2.22741812 9 5 C14.24361805 13.25465923 15.80023596 19.14153756 15 29 C13.4258575 35.28801487 10.69883374 40.53037766 6 45 C3.1875 45.875 3.1875 45.875 1 46 C1 45.34 1 44.68 1 44 C1.721875 43.505 2.44375 43.01 3.1875 42.5 C8.14189258 38.09609548 10.55894689 33.11559917 11.48828125 26.55078125 C11.77771854 18.90136729 10.91731819 13.02338164 6 7 C3.3908613 4.67722584 3.3908613 4.67722584 1 3 C0.67 2.01 0.34 1.02 0 0 Z " fill="#D4D4D5" transform="translate(81,33)"/>
<path d="M0 0 C3.67817783 0.56042289 6.21380426 1.5142096 9.3125 3.5625 C10.00988281 4.01753906 10.70726563 4.47257813 11.42578125 4.94140625 C11.94527344 5.29074219 12.46476562 5.64007813 13 6 C9.59287819 9.97497544 5.67239145 11.86793788 1 14 C0 13 0 13 -0.09765625 10.05859375 C-0.08605469 8.86363281 -0.07445312 7.66867188 -0.0625 6.4375 C-0.05347656 5.23996094 -0.04445312 4.04242188 -0.03515625 2.80859375 C-0.02355469 1.88175781 -0.01195312 0.95492187 0 0 Z " fill="#D7D7D7" transform="translate(54,128)"/>
<path d="M0 0 C6.07772021 -0.35233161 6.07772021 -0.35233161 9 0 C11.0625 2 11.0625 2 12 4 C12.33 2.68 12.66 1.36 13 0 C13.66 0 14.32 0 15 0 C15 2.97 15 5.94 15 9 C12 8 12 8 10 5 C9.67 6.32 9.34 7.64 9 9 C8.34 9 7.68 9 7 9 C6.67 8.34 6.34 7.68 6 7 C6 7.66 6 8.32 6 9 C4.02 9 2.04 9 0 9 C0 6.03 0 3.06 0 0 Z " fill="#404040" transform="translate(62,52)"/>
<path d="M0 0 C3.44313025 0.41317563 6.55876571 0.83331149 9.8125 2.0625 C17.62737221 4.36099183 24.58951019 3.00715528 32 0 C32.66 0.66 33.32 1.32 34 2 C28.54875069 5.63657613 24.63983005 6.68347595 18.125 6.5625 C16.93898193 6.55476563 16.93898193 6.55476563 15.72900391 6.546875 C9.54024276 6.35303785 4.87173299 4.98855332 0 1 C0 0.67 0 0.34 0 0 Z " fill="#B2B2B2" transform="translate(50,78)"/>
<path d="M0 0 C0.66 0.66 1.32 1.32 2 2 C1.67 2.66 1.34 3.32 1 4 C0.34515625 3.7834375 -0.3096875 3.566875 -0.984375 3.34375 C-7.37662844 1.39357099 -12.89009161 0.75125302 -19.56640625 1.08984375 C-22 1 -22 1 -24 -1 C-15.43677744 -3.79615431 -8.40048569 -3.34790837 0 0 Z " fill="#C8C7C9" transform="translate(81,31)"/>
<path d="M0 0 C0.33 0 0.66 0 1 0 C1.76928896 15.21482602 1.76928896 15.21482602 -3 22 C-3.639375 22.969375 -4.27875 23.93875 -4.9375 24.9375 C-7.30103717 27.30103717 -8.71418244 27.72618187 -12 28 C-12 27.34 -12 26.68 -12 26 C-11.278125 25.505 -10.55625 25.01 -9.8125 24.5 C-2.62811624 18.1138811 -1.05720505 9.1834827 0 0 Z " fill="#C8C7C9" transform="translate(94,51)"/>
<path d="M0 0 C0.33 0 0.66 0 1 0 C1.01417969 0.68964844 1.02835938 1.37929688 1.04296875 2.08984375 C1.55441519 12.16672084 5.37465579 18.61747359 12 26 C6.54052229 24.96009948 4.22006687 22.54314707 1.1953125 18.140625 C-2.02271234 12.37762626 -0.92065132 6.24626512 0 0 Z " fill="#CCCCCC" transform="translate(42,53)"/>
<path d="M0 0 C0.66 0 1.32 0 2 0 C2 2.31 2 4.62 2 7 C4.31 7 6.62 7 9 7 C9 7.66 9 8.32 9 9 C6.69 9 4.38 9 2 9 C2 10.98 2 12.96 2 15 C1.34 15 0.68 15 0 15 C0 13.02 0 11.04 0 9 C-1.98 9 -3.96 9 -6 9 C-6.33 8.34 -6.66 7.68 -7 7 C-4.69 7 -2.38 7 0 7 C0 4.69 0 2.38 0 0 Z " fill="#C9C9C9" transform="translate(139,49)"/>
<path d="M0 0 C0.99 0 1.98 0 3 0 C3 4.29 3 8.58 3 13 C2.01 13 1.02 13 0 13 C0 8.71 0 4.42 0 0 Z " fill="#D1D1D1" transform="translate(74,128)"/>
<path d="M0 0 C0.99 0 1.98 0 3 0 C3 4.29 3 8.58 3 13 C2.01 13 1.02 13 0 13 C0 8.71 0 4.42 0 0 Z " fill="#C7C7C7" transform="translate(79,128)"/>
<path d="M0 0 C1.32 1.32 2.64 2.64 4 4 C4.33 2.68 4.66 1.36 5 0 C5.66 0 6.32 0 7 0 C7 2.97 7 5.94 7 9 C4 8 4 8 2 5 C1.34 6.32 0.68 7.64 0 9 C0 6.03 0 3.06 0 0 Z " fill="#B1B1B2" transform="translate(70,52)"/>
<path d="M0 0 C0.33 0 0.66 0 1 0 C0.67 4.95 0.34 9.9 0 15 C-0.66 15 -1.32 15 -2 15 C-2.05386629 12.87527424 -2.09273071 10.75016348 -2.125 8.625 C-2.14820313 7.44164062 -2.17140625 6.25828125 -2.1953125 5.0390625 C-2 2 -2 2 0 0 Z " fill="#DFDFE0" transform="translate(42,47)"/>
<path d="M0 0 C1.98 0 3.96 0 6 0 C6 0.66 6 1.32 6 2 C4.68 2 3.36 2 2 2 C2 2.66 2 3.32 2 4 C2.99 4.33 3.98 4.66 5 5 C3.68 5 2.36 5 1 5 C1 5.99 1 6.98 1 8 C2.65 8 4.3 8 6 8 C6 8.33 6 8.66 6 9 C4.02 9 2.04 9 0 9 C0 6.03 0 3.06 0 0 Z " fill="#B1B0B1" transform="translate(62,52)"/>
<path d="M0 0 C0.66 0 1.32 0 2 0 C2.66 1.65 3.32 3.3 4 5 C4.66 4.67 5.32 4.34 6 4 C5.67 5.32 5.34 6.64 5 8 C3.35 8.33 1.7 8.66 0 9 C0 6.03 0 3.06 0 0 Z " fill="#A7A7A9" transform="translate(51,52)"/>
<path d="M0 0 C0.66 0 1.32 0 2 0 C3.44207941 2.88415883 3.09394887 5.41721528 3.0625 8.625 C3.05347656 9.81351563 3.04445313 11.00203125 3.03515625 12.2265625 C3.02355469 13.14179687 3.01195313 14.05703125 3 15 C1.51171875 13.88671875 1.51171875 13.88671875 0 12 C-0.29296875 9.08203125 -0.29296875 9.08203125 -0.1875 5.8125 C-0.16042969 4.72582031 -0.13335937 3.63914063 -0.10546875 2.51953125 C-0.07066406 1.68808594 -0.03585938 0.85664062 0 0 Z " fill="#C9C9C9" transform="translate(93,47)"/>
<path d="M0 0 C0.33 0 0.66 0 1 0 C1.02699725 2.27076842 1.04639453 4.54162821 1.0625 6.8125 C1.07410156 8.07707031 1.08570312 9.34164062 1.09765625 10.64453125 C1 14 1 14 0 17 C-0.66 17 -1.32 17 -2 17 C-1.38273804 11.32644329 -0.72054048 5.66138945 0 0 Z " fill="#E5E5E6" transform="translate(94,51)"/>
<path d="M0 0 C1.1875 1.625 1.1875 1.625 2 4 C0.625 7.25 0.625 7.25 -1 10 C-1.99 9.67 -2.98 9.34 -4 9 C-2.94124926 5.59687262 -1.99097846 2.98646769 0 0 Z " fill="#C8C7C9" transform="translate(45,39)"/>
<path d="M0 0 C1.62463842 -0.05395478 3.24978541 -0.09277195 4.875 -0.125 C5.77992187 -0.14820312 6.68484375 -0.17140625 7.6171875 -0.1953125 C10 0 10 0 12 2 C11.67 2.66 11.34 3.32 11 4 C7.37 3.01 3.74 2.02 0 1 C0 0.67 0 0.34 0 0 Z " fill="#B3B3B3" transform="translate(71,31)"/>
<path d="M0 0 C0.66 0 1.32 0 2 0 C2 2.97 2 5.94 2 9 C1.34 9 0.68 9 0 9 C-0.87890625 2.84765625 -0.87890625 2.84765625 -1 1 C-0.67 0.67 -0.34 0.34 0 0 Z " fill="#A2A2A3" transform="translate(58,52)"/>
<path d="M0 0 C3.79588866 0.54226981 5.47211993 2.20127563 8 5 C7.01 5.33 6.02 5.66 5 6 C3.31237149 4.3545622 1.6459651 2.68711423 0 1 C0 0.67 0 0.34 0 0 Z " fill="#CCCCCD" transform="translate(81,33)"/>
<path d="M0 0 C1.09570312 0.10183594 2.19140625 0.20367188 3.3203125 0.30859375 C4.16335937 0.39238281 5.00640625 0.47617187 5.875 0.5625 C5.875 0.8925 5.875 1.2225 5.875 1.5625 C3.91810341 1.78392255 1.95938048 1.9892568 0 2.1875 C-1.63582031 2.36152344 -1.63582031 2.36152344 -3.3046875 2.5390625 C-4.70074219 2.55066406 -4.70074219 2.55066406 -6.125 2.5625 C-6.785 1.9025 -7.445 1.2425 -8.125 0.5625 C-5.28943413 -0.85528293 -3.1341294 -0.30007622 0 0 Z " fill="#C0C0C1" transform="translate(65.125,29.4375)"/>
<path d="M0 0 C2.31 0.33 4.62 0.66 7 1 C7 1.66 7 2.32 7 3 C8.32 3.66 9.64 4.32 11 5 C10.01 5.495 10.01 5.495 9 6 C6.8359375 5.00390625 6.8359375 5.00390625 4.375 3.5625 C3.55773438 3.08941406 2.74046875 2.61632812 1.8984375 2.12890625 C1.27195313 1.75636719 0.64546875 1.38382812 0 1 C0 0.67 0 0.34 0 0 Z " fill="#9C9C9D" transform="translate(50,78)"/>
<path d="M0 0 C0.66 1.32 1.32 2.64 2 4 C0.68 5.32 -0.64 6.64 -2 8 C-2 4.23312136 -1.76462683 3.08809695 0 0 Z " fill="#D0D0D0" transform="translate(91,66)"/>
</svg>
