<?xml version="1.0" encoding="UTF-8"?>
<svg version="1.1" xmlns="http://www.w3.org/2000/svg" width="256" height="256">
<path d="M0 0 C1.34967643 -0.00299791 2.69935201 -0.00640188 4.04902649 -0.01017761 C7.69181686 -0.01895807 11.33458369 -0.02135321 14.97738361 -0.0219934 C17.26019086 -0.02270735 19.54299225 -0.02484818 21.82579803 -0.02749062 C29.80948767 -0.0367247 37.79316067 -0.04082798 45.77685547 -0.04003906 C53.18686075 -0.03943896 60.59679307 -0.04998251 68.00677991 -0.06578273 C74.39522555 -0.07891314 80.7836475 -0.08422065 87.1721065 -0.08358365 C90.97581985 -0.08333026 94.77946828 -0.08609299 98.58316803 -0.0967617 C102.16523388 -0.10653575 105.74717399 -0.10645908 109.32924461 -0.09924507 C111.24823501 -0.09772273 113.16722564 -0.10598065 115.0861969 -0.11468506 C134.60785472 -0.04496336 151.50073351 4.72208411 166.11230469 18.20776367 C177.24041321 29.95410045 183.50588865 46.13495424 183.57197571 62.2638855 C183.58270866 64.07165215 183.58270866 64.07165215 183.59365845 65.91593933 C183.59634735 67.22508804 183.59903625 68.53423676 183.60180664 69.88305664 C183.60807876 71.28653631 183.61472622 72.69001434 183.62171936 74.0934906 C183.64268492 78.69146587 183.65311935 83.28944116 183.66308594 87.88745117 C183.66713724 89.47760154 183.67125427 91.06775174 183.67543602 92.65790176 C183.69447654 100.13621826 183.70870617 107.614525 183.71704799 115.09286106 C183.72679604 123.68725461 183.75305642 132.28138894 183.79354888 140.87569129 C183.82386362 147.54182666 183.83853157 154.2078884 183.841829 160.87409127 C183.84416333 164.84403335 183.852909 168.81369823 183.87829018 172.78356552 C183.90184465 176.52820726 183.9056965 180.27239468 183.89552879 184.01709175 C183.89480977 186.01786873 183.9137096 188.01862407 183.93359375 190.01930237 C183.83113522 208.21821144 178.51138845 224.63598966 165.72949219 237.93432617 C150.67214177 252.3791742 133.28036938 256.62139684 112.77880859 256.54931641 C111.37414514 256.55503787 109.96948632 256.56200888 108.56483459 256.57011414 C104.79397982 256.58786565 101.02336 256.58691154 97.25247622 256.58117175 C94.0844718 256.57805331 90.91651081 256.58420158 87.74851263 256.5902105 C80.26459572 256.60419522 72.78079311 256.60274542 65.296875 256.59130859 C57.62031416 256.57983536 49.94410304 256.59390344 42.26758826 256.62070507 C35.63523893 256.64297937 29.00299842 256.64947318 22.37061441 256.64362866 C18.42765118 256.64028549 14.48491189 256.64249545 10.54198074 256.65987968 C-13.78163945 256.75678742 -35.66865866 256.41950764 -54.36425781 238.44995117 C-73.51753158 218.48452445 -73.04108495 194.65231988 -72.94524026 168.68099809 C-72.93377875 164.84077394 -72.93804428 161.00056048 -72.93998718 157.1603241 C-72.94086526 150.71946812 -72.92988981 144.27871838 -72.91137695 137.83789062 C-72.89018981 130.42488594 -72.88670818 123.01203628 -72.89293891 115.59900743 C-72.89866078 108.41969525 -72.89295555 101.24043685 -72.88176537 94.06113243 C-72.87715935 91.02679116 -72.87622793 87.9924832 -72.87835121 84.95813942 C-72.88025436 81.37842014 -72.87197716 77.79885554 -72.85629082 74.21917152 C-72.8501235 72.3026489 -72.8535232 70.38610268 -72.85736084 68.46957397 C-72.73944779 48.95173844 -68.00014344 32.07125106 -54.51269531 17.45776367 C-39.22821797 2.9777325 -20.29725991 -0.00737662 0 0 Z " fill="#222222" transform="translate(72.5751953125,-0.145263671875)"/>
<path d="M0 0 C2.02445164 1.29725691 3.55245891 2.6139548 5.1640625 4.38671875 C4.1640625 7.38671875 4.1640625 7.38671875 1.7265625 9.76171875 C-2.4720692 14.0627561 -3.14127343 17.90973889 -3.2109375 23.82421875 C-3.12009594 29.18992686 -2.65117742 32.36524965 1.1640625 36.38671875 C2.0509375 37.02609375 2.9378125 37.66546875 3.8515625 38.32421875 C6.1640625 40.38671875 6.1640625 40.38671875 7.1015625 43.88671875 C7.16109368 47.22046481 7.00256197 48.68304306 5.1640625 51.38671875 C4.5040625 51.38671875 3.8440625 51.38671875 3.1640625 51.38671875 C2.8546875 52.37671875 2.8546875 52.37671875 2.5390625 53.38671875 C0.15175114 58.59539809 -3.04974671 63.19592489 -7.8359375 66.38671875 C-10.39453125 66.65234375 -10.39453125 66.65234375 -13.2734375 66.63671875 C-14.22089844 66.641875 -15.16835937 66.64703125 -16.14453125 66.65234375 C-18.91513471 66.37890248 -20.39663345 65.63801843 -22.8359375 64.38671875 C-29.10670667 63.58993785 -33.25524185 64.47505145 -38.8359375 67.38671875 C-43.15574259 68.08346151 -45.34086356 68.36560437 -49.01953125 65.95703125 C-52.39097185 63.07429488 -55.3556719 60.0804066 -57.8359375 56.38671875 C-57.8359375 55.72671875 -57.8359375 55.06671875 -57.8359375 54.38671875 C-58.4959375 54.38671875 -59.1559375 54.38671875 -59.8359375 54.38671875 C-70.83358063 27.82637308 -70.83358063 27.82637308 -67.11328125 13.62890625 C-64.43220707 7.22472096 -60.3331377 1.38386831 -54.05859375 -1.92578125 C-46.90056101 -4.13986519 -39.74638592 -2.92302352 -32.8359375 -0.61328125 C-30.55032331 -0.50598148 -30.55032331 -0.50598148 -28.3984375 -0.86328125 C-27.24021484 -1.02376953 -27.24021484 -1.02376953 -26.05859375 -1.1875 C-23.59811932 -1.6184136 -23.59811932 -1.6184136 -20.3359375 -2.67578125 C-12.44249878 -4.79009519 -7.20235718 -3.80696022 0 0 Z " fill="#C6C6C6" transform="translate(103.8359375,101.61328125)"/>
<path d="M0 0 C1.34967643 -0.00299791 2.69935201 -0.00640188 4.04902649 -0.01017761 C7.69181686 -0.01895807 11.33458369 -0.02135321 14.97738361 -0.0219934 C17.26019086 -0.02270735 19.54299225 -0.02484818 21.82579803 -0.02749062 C29.80948767 -0.0367247 37.79316067 -0.04082798 45.77685547 -0.04003906 C53.18686075 -0.03943896 60.59679307 -0.04998251 68.00677991 -0.06578273 C74.39522555 -0.07891314 80.7836475 -0.08422065 87.1721065 -0.08358365 C90.97581985 -0.08333026 94.77946828 -0.08609299 98.58316803 -0.0967617 C102.16523388 -0.10653575 105.74717399 -0.10645908 109.32924461 -0.09924507 C111.24823501 -0.09772273 113.16722564 -0.10598065 115.0861969 -0.11468506 C134.60785472 -0.04496336 151.50073351 4.72208411 166.11230469 18.20776367 C177.24041321 29.95410045 183.50588865 46.13495424 183.57197571 62.2638855 C183.58270866 64.07165215 183.58270866 64.07165215 183.59365845 65.91593933 C183.59634735 67.22508804 183.59903625 68.53423676 183.60180664 69.88305664 C183.60807876 71.28653631 183.61472622 72.69001434 183.62171936 74.0934906 C183.64268492 78.69146587 183.65311935 83.28944116 183.66308594 87.88745117 C183.66713724 89.47760154 183.67125427 91.06775174 183.67543602 92.65790176 C183.69447654 100.13621826 183.70870617 107.614525 183.71704799 115.09286106 C183.72679604 123.68725461 183.75305642 132.28138894 183.79354888 140.87569129 C183.82386362 147.54182666 183.83853157 154.2078884 183.841829 160.87409127 C183.84416333 164.84403335 183.852909 168.81369823 183.87829018 172.78356552 C183.90184465 176.52820726 183.9056965 180.27239468 183.89552879 184.01709175 C183.89480977 186.01786873 183.9137096 188.01862407 183.93359375 190.01930237 C183.8310573 208.23205099 178.4985725 224.59252009 165.74902344 237.92651367 C156.08043087 247.15636338 145.97600954 253.21500628 132.29980469 253.27026367 C131.35105469 253.22901367 130.40230469 253.18776367 129.42480469 253.14526367 C132.86931205 250.84892543 135.36292752 250.60509882 139.42480469 250.14526367 C139.42480469 249.48526367 139.42480469 248.82526367 139.42480469 248.14526367 C142.72480469 247.15526367 146.02480469 246.16526367 149.42480469 245.14526367 C149.42480469 244.48526367 149.42480469 243.82526367 149.42480469 243.14526367 C151.04199219 242.02416992 151.04199219 242.02416992 153.29980469 240.70776367 C160.18011283 236.29171803 167.14842025 229.77225695 170.42480469 222.14526367 C171.08480469 222.14526367 171.74480469 222.14526367 172.42480469 222.14526367 C172.534375 221.58838867 172.64394531 221.03151367 172.75683594 220.45776367 C173.72419185 215.8018718 174.92750129 211.46514962 176.74121094 207.06713867 C178.15516799 203.09189942 178.54996707 199.24517819 178.55178833 195.04698181 C178.55460815 194.04248489 178.55742798 193.03798798 178.56033325 192.00305176 C178.55830902 190.91165894 178.55628479 189.82026611 178.55419922 188.69580078 C178.55595154 187.53726089 178.55770386 186.37872101 178.55950928 185.18507385 C178.56391587 181.34756986 178.56099107 177.5101119 178.55761719 173.67260742 C178.55829125 170.99239546 178.55926094 168.31218488 178.56051636 165.63197327 C178.56233613 160.0022024 178.55994072 154.37244465 178.55517578 148.74267578 C178.54977319 142.28607933 178.55146716 135.82951466 178.55700219 129.37291902 C178.56158662 123.79717745 178.56215699 118.22144528 178.55956352 112.64570242 C178.55802457 109.33077348 178.55814661 106.01587091 178.56110001 102.70094109 C178.56938105 90.77806204 178.56968739 78.86108206 178.02978516 66.94824219 C177.99787142 66.18135795 177.96595768 65.41447371 177.93307686 64.62435055 C177.44511891 55.48313844 176.01316625 45.3093385 171.28808594 37.35229492 C169.42480469 34.14526367 169.42480469 34.14526367 169.42480469 31.14526367 C168.76480469 31.14526367 168.10480469 31.14526367 167.42480469 31.14526367 C167.05355469 29.96963867 167.05355469 29.96963867 166.67480469 28.77026367 C165.2083519 25.69071282 164.43903537 25.47507133 161.42480469 24.14526367 C159.17480469 22.14526367 159.17480469 22.14526367 157.42480469 20.14526367 C157.42480469 19.48526367 157.42480469 18.82526367 157.42480469 18.14526367 C156.62042969 17.77401367 156.62042969 17.77401367 155.79980469 17.39526367 C153.42480469 16.14526367 153.42480469 16.14526367 150.98730469 14.27026367 C132.3461033 1.68627886 102.01977922 4.98674837 80.61230469 5.01245117 C78.58129871 5.01177453 76.55029281 5.01080153 74.51928711 5.009552 C70.29735531 5.00809195 66.0754449 5.01017433 61.85351562 5.01489258 C56.50213415 5.02058878 51.15080287 5.01730059 45.79942322 5.01132011 C41.61584103 5.0076683 37.43227032 5.00887405 33.24868774 5.01144791 C31.27796421 5.01210447 29.30723956 5.01133449 27.33651733 5.00896835 C-12.38486913 3.5585491 -12.38486913 3.5585491 -46.36816406 20.86791992 C-47.09648438 21.61944336 -47.82480469 22.3709668 -48.57519531 23.14526367 C-49.29320313 23.78334961 -50.01121094 24.42143555 -50.75097656 25.07885742 C-62.67410698 35.87928253 -66.53747517 52.90008342 -67.85341644 68.42829514 C-68.26915351 76.89255197 -68.17612806 85.35753819 -68.09863281 93.82885742 C-68.08909313 96.54484256 -68.08691206 99.2608224 -68.0843811 101.9768219 C-68.07526089 107.63379914 -68.04802231 113.29043083 -68.00732422 118.94726562 C-67.95055182 126.84380535 -67.92812383 134.74017152 -67.91203952 142.63688362 C-67.89794424 148.86756451 -67.87360427 155.09821229 -67.84863281 161.32885742 C-67.84372204 162.61835234 -67.83881126 163.90784725 -67.83375168 165.23641777 C-67.76233694 181.22877805 -67.41967649 197.17407542 -66.57519531 213.14526367 C-67.23519531 212.81526367 -67.89519531 212.48526367 -68.57519531 212.14526367 C-69.20349478 209.67415283 -69.70468511 207.27668251 -70.13769531 204.77026367 C-70.3262207 203.7705957 -70.3262207 203.7705957 -70.51855469 202.75073242 C-72.33472604 192.69047436 -72.72456 182.64830697 -72.72045898 172.44458008 C-72.7238176 171.22515213 -72.72717621 170.00572418 -72.7306366 168.74934387 C-72.73845179 165.43722527 -72.74181074 162.1251694 -72.74245238 158.81304598 C-72.74316793 156.73559463 -72.74531166 154.65814967 -72.7479496 152.58069992 C-72.75717138 145.3102248 -72.76128832 138.03976789 -72.76049805 130.76928711 C-72.75989754 124.02838498 -72.77045223 117.28756293 -72.78624171 110.54668105 C-72.79937963 104.72719217 -72.80467936 98.90772929 -72.80404264 93.08822572 C-72.80378956 89.6265946 -72.80653455 86.16503486 -72.81722069 82.70341873 C-72.82883306 78.83716031 -72.82411681 74.97100926 -72.81811523 71.10473633 C-72.82373474 69.98121262 -72.82935425 68.8576889 -72.83514404 67.70011902 C-72.75995372 48.50907574 -67.73566172 31.78468832 -54.51269531 17.45776367 C-39.22821797 2.9777325 -20.29725991 -0.00737662 0 0 Z " fill="#424242" transform="translate(72.5751953125,-0.145263671875)"/>
<path d="M0 0 C4.62 0 9.24 0 14 0 C13.31130249 2.75479004 12.58790435 5.36466501 11.6953125 8.046875 C11.31439453 9.1915625 11.31439453 9.1915625 10.92578125 10.359375 C10.66152344 11.14828125 10.39726562 11.9371875 10.125 12.75 C9.74021484 13.91015625 9.74021484 13.91015625 9.34765625 15.09375 C5.06622547 27.91652762 5.06622547 27.91652762 2.89453125 32.16015625 C1.74260189 34.52940834 1.25607296 36.86671307 0.6875 39.4375 C-1.53126463 48.65044145 -5.17749286 57.34906279 -9 66 C-13.62 66 -18.24 66 -23 66 C-27.76591595 54.83772316 -27.76591595 54.83772316 -28.87915039 50.85375977 C-30.10363387 46.49635295 -31.65922752 42.27654399 -33.22265625 38.03125 C-33.84986674 36.30868744 -34.47681184 34.58602823 -35.10351562 32.86328125 C-36.08373 30.17647654 -37.06600023 27.49048028 -38.05297852 24.80615234 C-39.01148256 22.19587009 -39.96139928 19.58258807 -40.91015625 16.96875 C-41.20495377 16.17376099 -41.49975128 15.37877197 -41.80348206 14.55969238 C-43.44571187 10.01447922 -44.4978005 5.81024823 -45 1 C-40.71 1 -36.42 1 -32 1 C-30.38155177 5.04612058 -29.52453082 8.0905497 -28.875 12.3125 C-28.70742187 13.38113281 -28.53984375 14.44976562 -28.3671875 15.55078125 C-28.24601562 16.35902344 -28.12484375 17.16726562 -28 18 C-27.34 18 -26.68 18 -26 18 C-24.87162606 21.66563686 -23.7479191 25.3326888 -22.625 29 C-22.30789062 30.02996094 -21.99078125 31.05992187 -21.6640625 32.12109375 C-17 47.37646484 -17 47.37646484 -17 53 C-16.34 53 -15.68 53 -15 53 C-14.90638184 52.37923584 -14.81276367 51.75847168 -14.71630859 51.11889648 C-13.35917428 42.89005396 -11.06809211 35.01849124 -8.625 27.0625 C-8.2338584 25.76903631 -7.84323126 24.47541694 -7.453125 23.18164062 C-5.09921306 15.40900419 -2.60199105 7.69310138 0 0 Z " fill="#BEBEBE" transform="translate(207,102)"/>
<path d="M0 0 C3.96 0 7.92 0 12 0 C12 5.28 12 10.56 12 16 C16.29 16 20.58 16 25 16 C25 19.3 25 22.6 25 26 C21.04 26 17.08 26 13 26 C13.09348657 31.7843867 13.19956981 37.56835245 13.31738281 43.35229492 C13.35568847 45.32032931 13.39053855 47.2884341 13.421875 49.2565918 C13.46749111 52.08407772 13.52549098 54.91107834 13.5859375 57.73828125 C13.59748871 58.61962234 13.60903992 59.50096344 13.62094116 60.40901184 C13.64081085 61.22963608 13.66068054 62.05026031 13.68115234 62.89575195 C13.69447601 63.61745071 13.70779968 64.33914948 13.7215271 65.0827179 C13.90726155 67.32601629 13.90726155 67.32601629 16 70 C18.19454681 70.57993699 18.19454681 70.57993699 20.625 70.6875 C22.06875 70.790625 23.5125 70.89375 25 71 C25 74.3 25 77.6 25 81 C10.36290595 81.39619202 10.36290595 81.39619202 5 79 C1.40926816 75.22028227 -0.12759114 72.69835775 -0.11352539 67.55029297 C-0.11344986 66.62948944 -0.11337433 65.70868591 -0.11329651 64.75997925 C-0.10813522 63.76410797 -0.10297394 62.76823669 -0.09765625 61.7421875 C-0.0962413 60.72399933 -0.09482635 59.70581116 -0.09336853 58.6567688 C-0.087759 55.39614965 -0.07520488 52.13559849 -0.0625 48.875 C-0.05748623 46.66796974 -0.05292311 44.46093841 -0.04882812 42.25390625 C-0.03778647 36.83591119 -0.02051543 31.41796714 0 26 C-3.3 26 -6.6 26 -10 26 C-10 22.7 -10 19.4 -10 16 C-6.7 16 -3.4 16 0 16 C0 10.72 0 5.44 0 0 Z " fill="#C3C3C3" transform="translate(129,87)"/>
<path d="M0 0 C1.24197144 -0.0049649 2.48394287 -0.00992981 3.7635498 -0.01504517 C7.14836359 -0.02708528 10.53311615 -0.03459432 13.91794395 -0.03905582 C16.04198335 -0.04200438 18.16601757 -0.04611245 20.29005432 -0.05056 C26.9626562 -0.06421039 33.63524599 -0.07388798 40.30786085 -0.07776189 C47.9598071 -0.08223113 55.61157371 -0.09973649 63.2634654 -0.12876248 C69.21121301 -0.15052545 75.15891064 -0.16047395 81.10669756 -0.16180301 C84.64342222 -0.16284103 88.17997751 -0.16853026 91.71665955 -0.18662262 C106.19074485 -0.25663309 120.18318701 -0.24884946 134.31445312 3.16113281 C134.31445312 3.49113281 134.31445312 3.82113281 134.31445312 4.16113281 C133.64321065 4.15928923 132.97196817 4.15744564 132.28038502 4.15554619 C115.84967145 4.11112782 99.41897722 4.07816098 82.98821735 4.05750847 C75.04200886 4.04725232 67.09584075 4.03330216 59.1496582 4.01025391 C52.21334766 3.99014464 45.2770664 3.97737541 38.34072751 3.97295582 C34.67746071 3.97037769 31.0142776 3.96444059 27.35103798 3.9496727 C-1.7021844 2.83798273 -1.7021844 2.83798273 -29.59570312 9.29394531 C-31.68554688 10.16113281 -31.68554688 10.16113281 -35.06054688 10.59863281 C-38.64084826 11.36584025 -40.24689175 13.60196511 -42.68554688 16.16113281 C-43.8312117 17.31233631 -44.97981817 18.46061744 -46.13085938 19.60644531 C-46.73285156 20.2084375 -47.33484375 20.81042969 -47.95507812 21.43066406 C-56.68554688 30.16113281 -56.68554688 30.16113281 -58.28833008 31.62402344 C-60.82690352 34.41676473 -61.59798371 38.00064451 -62.74804688 41.53613281 C-63.00392578 42.2721875 -63.25980469 43.00824219 -63.5234375 43.76660156 C-67.30890561 55.19112485 -67.97970163 66.71689796 -67.91259766 78.67211914 C-67.91203184 80.07303357 -67.91235342 81.47394858 -67.91348267 82.87486267 C-67.91405053 86.63435708 -67.90238933 90.39372078 -67.88833475 94.15318513 C-67.87573166 98.09826616 -67.87464941 102.04335103 -67.87228394 105.9884491 C-67.86609706 113.43956421 -67.84972453 120.8906198 -67.82958496 128.34170884 C-67.80713842 136.83277143 -67.79621063 145.32383704 -67.78619409 153.81492198 C-67.76535544 171.2636932 -67.73023448 188.71240669 -67.68554688 206.16113281 C-74.74173767 192.89469644 -71.98247987 172.72638971 -71.95419788 158.22055149 C-71.94905552 154.74735283 -71.95385136 151.27416355 -71.95697021 147.80096436 C-71.96058435 141.97812977 -71.95587649 136.15534632 -71.94628906 130.33251953 C-71.9353889 123.63579102 -71.93895174 116.9391842 -71.94994187 110.24245858 C-71.95906363 104.44831954 -71.9602769 98.65421677 -71.95506454 92.86007285 C-71.95197416 89.41866041 -71.95145387 85.9773049 -71.95813751 82.5358963 C-71.963256 78.69897902 -71.95541894 74.86229097 -71.94433594 71.02539062 C-71.9483844 69.91129318 -71.95243286 68.79719574 -71.956604 67.64933777 C-71.85482216 48.4846346 -66.82782892 31.78085492 -53.62304688 17.47363281 C-38.6221034 3.26221268 -19.9647949 0.01929722 0 0 Z " fill="#8D8D8D" transform="translate(71.685546875,-0.1611328125)"/>
<path d="M0 0 C10.45921801 -0.35454976 21.93151417 0.23447561 31 6 C33.5625 8.75 33.5625 8.75 35 11 C34.443125 10.80664062 33.88625 10.61328125 33.3125 10.4140625 C32.549375 10.15367188 31.78625 9.89328125 31 9.625 C29.88625 9.24214844 29.88625 9.24214844 28.75 8.8515625 C20.5075442 6.29921113 13.11119449 5.58814162 4.484375 5.3828125 C3.47023151 5.35515493 3.47023151 5.35515493 2.43560028 5.32693863 C-16.86310139 4.80145063 -36.17234307 4.84845522 -55.4765625 4.86962891 C-60.73343497 4.87536986 -65.99025683 4.87200091 -71.24712753 4.86605644 C-75.37921517 4.86240849 -79.51129118 4.86360791 -83.64337921 4.86618423 C-85.5806097 4.86683951 -87.51784134 4.86607564 -89.4550705 4.86370468 C-128.98731621 3.45112988 -128.98731621 3.45112988 -162.79296875 20.72265625 C-163.52128906 21.47417969 -164.24960938 22.22570312 -165 23 C-165.71800781 23.63808594 -166.43601563 24.27617187 -167.17578125 24.93359375 C-179.09891167 35.73401886 -182.96227985 52.75481975 -184.27822113 68.28303146 C-184.6939582 76.7472883 -184.60093274 85.21227452 -184.5234375 93.68359375 C-184.51389781 96.39957889 -184.51171674 99.11555873 -184.50918579 101.83155823 C-184.50006558 107.48853547 -184.472827 113.14516715 -184.43212891 118.80200195 C-184.3753565 126.69854167 -184.35292852 134.59490785 -184.33684421 142.49161994 C-184.32274893 148.72230083 -184.29840896 154.95294862 -184.2734375 161.18359375 C-184.26852673 162.47308867 -184.26361595 163.76258358 -184.25855637 165.0911541 C-184.18714163 181.08351437 -183.84448117 197.02881175 -183 213 C-183.66 212.67 -184.32 212.34 -185 212 C-185.92048383 207.98535308 -186.12845871 204.10915742 -186.14044189 200.0019989 C-186.14615204 198.82350876 -186.15186218 197.64501862 -186.15774536 196.43081665 C-186.15886322 195.1512912 -186.15998108 193.87176575 -186.16113281 192.5534668 C-186.16576657 191.18116626 -186.17079198 189.808867 -186.17617798 188.43656921 C-186.18925862 184.71689389 -186.19573957 180.99723659 -186.20018864 177.27754188 C-186.20312909 174.94597432 -186.20723591 172.61441157 -186.21169281 170.28284645 C-186.22536231 162.96630747 -186.23502912 155.64977962 -186.2388947 148.33322877 C-186.24336077 139.92906256 -186.26084312 131.52506018 -186.2898953 123.12094373 C-186.31164246 116.60001323 -186.32160603 110.07912835 -186.32293582 103.55816203 C-186.32397547 99.67599059 -186.32970024 95.79397322 -186.34775543 91.91184044 C-186.48409118 60.84606955 -186.48409118 60.84606955 -183 47 C-182.78796432 46.13654465 -182.57592865 45.27308929 -182.35746765 44.38346863 C-179.59976533 34.33723347 -175.21430229 28.35087261 -167 22 C-165.51819709 20.5867051 -164.05817338 19.15008552 -162.625 17.6875 C-162.01914063 17.07261719 -161.41328125 16.45773438 -160.7890625 15.82421875 C-159.50571796 14.51565565 -158.24658155 13.18318235 -157.00390625 11.8359375 C-154.5842587 9.61910641 -152.35505071 9.15457702 -149.18810749 8.49516487 C-146.97249255 7.99377511 -144.93489177 7.29456175 -142.80278015 6.51486206 C-138.15533642 4.94858302 -133.71714424 4.24217405 -128.84301758 3.82470703 C-127.94987508 3.74485628 -127.05673258 3.66500553 -126.13652515 3.58273506 C-113.65400632 2.59169176 -101.13234673 2.74515007 -88.61994529 2.79721212 C-85.03259316 2.8099322 -81.44523559 2.81090638 -77.85786438 2.81326294 C-71.10116527 2.81941648 -64.34453286 2.83574193 -57.58786279 2.85596192 C-49.88015586 2.87851471 -42.1724453 2.88936246 -34.46471345 2.89935279 C-18.64310295 2.92011556 -2.8215628 2.95558386 13 3 C8.71 2.34 4.42 1.68 0 1 C0 0.67 0 0.34 0 0 Z " fill="#4A4A4A" transform="translate(189,0)"/>
<path d="M0 0 C0.6875 1.625 0.6875 1.625 1 4 C0 6 -1 8 -2 10 C-1.83886719 10.64066406 -1.67773438 11.28132813 -1.51171875 11.94140625 C-0.8786238 14.48828441 -1.3371839 15.52925503 -2.3125 17.9375 C-6.10866066 28.44438538 -6.28907559 39.4606672 -6.22705078 50.51098633 C-6.22648496 51.91190076 -6.22680655 53.31281577 -6.22793579 54.71372986 C-6.22850365 58.47322427 -6.21684245 62.23258797 -6.20278788 65.99205232 C-6.19018479 69.93713335 -6.18910254 73.88221822 -6.18673706 77.82731628 C-6.18055019 85.27843139 -6.16417765 92.72948698 -6.14403808 100.18057603 C-6.12159154 108.67163862 -6.11066375 117.16270423 -6.10064721 125.65378916 C-6.07980857 143.10256039 -6.04468761 160.55127388 -6 178 C-13.05619079 164.73356362 -10.29693299 144.56525689 -10.26865101 130.05941868 C-10.26350865 126.58622001 -10.26830449 123.11303074 -10.27142334 119.63983154 C-10.27503747 113.81699695 -10.27032962 107.9942135 -10.26074219 102.17138672 C-10.24984203 95.47465821 -10.25340487 88.77805139 -10.264395 82.08132577 C-10.27351675 76.28718672 -10.27473003 70.49308396 -10.26951766 64.69894004 C-10.26642729 61.2575276 -10.265907 57.81617209 -10.27259064 54.37476349 C-10.27770913 50.53784621 -10.26987206 46.70115816 -10.25878906 42.86425781 C-10.26283752 41.75016037 -10.26688599 40.63606293 -10.27105713 39.48820496 C-10.21907741 29.70084116 -9.63368483 19.53016698 -5.5625 10.5 C-4.94568359 9.09234375 -4.94568359 9.09234375 -4.31640625 7.65625 C-3.00528404 5.01066215 -1.55782032 2.50704611 0 0 Z " fill="#808080" transform="translate(10,28)"/>
<path d="M0 0 C1.17128952 0.21194 2.34257904 0.42388 3.54936218 0.64224243 C18.60094632 3.17644805 33.41484607 3.44733789 48.65122056 3.40297651 C52.16036487 3.39522869 55.66948908 3.40246565 59.17863464 3.40713501 C65.05915643 3.412546 70.93956403 3.40552136 76.82006836 3.39111328 C83.5725394 3.37475755 90.32473895 3.38011528 97.07720357 3.3965925 C102.93262895 3.41029616 108.78797364 3.41208521 114.64340991 3.40427649 C118.11562361 3.39965317 121.58771051 3.3988253 125.05991554 3.40888596 C144.24936837 3.52482023 144.24936837 3.52482023 163.13041687 0.54458618 C165.9060545 0.01782887 167.38398064 0.03683321 170 1 C167.69 1.66 165.38 2.32 163 3 C166.96 2.67 170.92 2.34 175 2 C166.23935343 7.84043105 153.96705368 7.43526575 143.79370117 7.37231445 C142.43679527 7.37475084 141.07989119 7.3784783 139.72299194 7.38337708 C136.08480426 7.39266953 132.4468911 7.38346285 128.80872512 7.37004495 C124.97862897 7.35861141 121.14854401 7.36284675 117.31843567 7.36479187 C110.89592069 7.36567059 104.47351211 7.35467894 98.05102539 7.33618164 C90.64593535 7.31497533 83.24100046 7.31151628 75.83588618 7.3177436 C68.67792175 7.32345265 61.52001144 7.31777636 54.36205482 7.30657005 C51.32998965 7.30194905 48.29795784 7.30103924 45.26589012 7.3031559 C41.69441693 7.3050501 38.12310001 7.29684873 34.55166245 7.2810955 C32.62958001 7.2748852 30.7074738 7.27834201 28.78538513 7.28216553 C20.14553645 7.22947439 12.69963388 5.93509782 4.4375 3.375 C3.59058594 3.11460937 2.74367187 2.85421875 1.87109375 2.5859375 C1.25363281 2.39257812 0.63617188 2.19921875 0 2 C0 1.34 0 0.68 0 0 Z " fill="#3D3D3D" transform="translate(42,249)"/>
<path d="M0 0 C0.33 0 0.66 0 1 0 C1.06511439 3.33530367 1.04051292 6.6644361 1 10 C1.01933594 10.84175781 1.03867188 11.68351563 1.05859375 12.55078125 C0.7811494 24.73983628 -6.38278757 36.37254485 -14.7109375 44.88671875 C-24.54004631 53.96103251 -34.39214132 60.0695137 -48.125 60.125 C-49.07375 60.08375 -50.0225 60.0425 -51 60 C-47.55549263 57.70366176 -45.06187717 57.45983515 -41 57 C-41 56.34 -41 55.68 -41 55 C-37.7 54.01 -34.4 53.02 -31 52 C-31 51.34 -31 50.68 -31 50 C-29.3828125 48.87890625 -29.3828125 48.87890625 -27.125 47.5625 C-20.24469186 43.14645436 -13.27638444 36.62699328 -10 29 C-9.34 29 -8.68 29 -8 29 C-7.89042969 28.443125 -7.78085938 27.88625 -7.66796875 27.3125 C-6.87251848 23.48399139 -6.01666679 19.82291697 -4.5625 16.1875 C-2.48038006 10.95033096 -1.28679716 5.47573262 0 0 Z " fill="#575757" transform="translate(253,193)"/>
<path d="M0 0 C10.45921801 -0.35454976 21.93151417 0.23447561 31 6 C33.5625 8.75 33.5625 8.75 35 11 C34.443125 10.80664062 33.88625 10.61328125 33.3125 10.4140625 C32.549375 10.15367188 31.78625 9.89328125 31 9.625 C29.88625 9.24214844 29.88625 9.24214844 28.75 8.8515625 C20.61650092 6.33295057 13.35416566 5.60508805 4.84375 5.41015625 C3.46504197 5.37316486 2.08633937 5.33597108 0.7076416 5.29859924 C-20.83705771 4.74981126 -42.3940494 4.64843701 -63.94415283 4.46777344 C-69.94586511 4.41667662 -75.94753953 4.3614608 -81.94921875 4.30664062 C-93.63277985 4.20050384 -105.31637443 4.09876599 -117 4 C-117 3.67 -117 3.34 -117 3 C-74.1 3 -31.2 3 13 3 C8.71 2.34 4.42 1.68 0 1 C0 0.67 0 0.34 0 0 Z " fill="#4E4E4E" transform="translate(189,0)"/>
<path d="M0 0 C1.79663338 0.31593864 1.79663338 0.31593864 3.62956238 0.63825989 C18.59211277 3.1087078 33.28646894 3.47376535 48.42578125 3.51171875 C50.99652438 3.528608 53.56725946 3.54676376 56.13798523 3.56611633 C62.15091009 3.60838556 68.16376366 3.6381356 74.17678088 3.66143972 C81.03815783 3.68875891 87.89940019 3.73265022 94.76067984 3.77772844 C108.84037947 3.86987063 122.92012168 3.94186835 137 4 C137 4.33 137 4.66 137 5 C119.84 5.33 102.68 5.66 85 6 C85 6.33 85 6.66 85 7 C76.55011925 7.04651049 68.10029274 7.08196373 59.65031528 7.10362434 C55.72589634 7.11402469 51.80156551 7.12811468 47.87719727 7.15087891 C44.08409201 7.17274194 40.29107108 7.18459677 36.49790764 7.18975449 C35.05675875 7.19342624 33.61561404 7.2005957 32.17450142 7.21146011 C24.52003594 7.26682789 17.41830473 7.06796884 10 5 C8.98808594 4.71898437 7.97617187 4.43796875 6.93359375 4.1484375 C6.10988281 3.89320313 5.28617188 3.63796875 4.4375 3.375 C3.59058594 3.11460937 2.74367187 2.85421875 1.87109375 2.5859375 C1.25363281 2.39257812 0.63617188 2.19921875 0 2 C0 1.34 0 0.68 0 0 Z " fill="#303030" transform="translate(42,249)"/>
<path d="M0 0 C0.66544455 6.38826772 -1.02669264 10.01245365 -5 15 C-8.80240167 19.23069417 -12.28589557 20.65715373 -18 21 C-18.49091611 13.88171646 -17.24485536 10.89200348 -12.609375 5.33203125 C-10.03144697 2.47595836 -8.54439559 1.14656804 -4.75 0.125 C-3.16775223 0.05307965 -1.58388148 0 0 0 Z " fill="#EBEBEB" transform="translate(92,76)"/>
<path d="M0 0 C0 0.33 0 0.66 0 1 C-5.94 1.495 -5.94 1.495 -12 2 C-12 2.66 -12 3.32 -12 4 C-22.17691506 7.8933038 -22.17691506 7.8933038 -26.375 8.4375 C-29.95530138 9.20470744 -31.56134487 11.4408323 -34 14 C-35.14566483 15.15120349 -36.29427129 16.29948463 -37.4453125 17.4453125 C-38.04730469 18.04730469 -38.64929688 18.64929688 -39.26953125 19.26953125 C-48 28 -48 28 -49.63623047 29.53466797 C-51.2001872 31.03093951 -51.2001872 31.03093951 -52 33.625 C-52.33 34.40875 -52.66 35.1925 -53 36 C-54.485 36.495 -54.485 36.495 -56 37 C-55.34838935 34.99504414 -54.67735217 32.99640639 -54 31 C-53.81695312 30.37351562 -53.63390625 29.74703125 -53.4453125 29.1015625 C-50.78630941 20.79628125 -44.18113031 13.83594135 -37 9 C-34.69342986 8.24592899 -32.354248 7.588562 -30 7 C-28.21830904 6.19014047 -26.44827355 5.35438379 -24.6875 4.5 C-16.49476019 0.70063092 -8.96424485 -0.28916919 0 0 Z " fill="#8A8989" transform="translate(63,2)"/>
<path d="M0 0 C3.3 0 6.6 0 10 0 C10 0.66 10 1.32 10 2 C8.9275 2.268125 7.855 2.53625 6.75 2.8125 C4.053325 3.95967424 3.15239394 4.71569006 1.75 7.33203125 C0.72393093 10.19781011 -0.1597003 13.07465759 -1 16 C-1.53570347 17.56455451 -2.07687834 19.12725269 -2.625 20.6875 C-3.96621636 24.74779434 -5.01657893 28.83937241 -6 33 C-6.66 33 -7.32 33 -8 33 C-8.09796875 33.67804688 -8.1959375 34.35609375 -8.296875 35.0546875 C-9.38275586 41.81335977 -11.20935436 47.75491436 -14 54 C-15.32 53.67 -16.64 53.34 -18 53 C-17.525625 52.62875 -17.05125 52.2575 -16.5625 51.875 C-14.47794198 49.37353038 -14.35378509 47.18406582 -14 44 C-13.34 44 -12.68 44 -12 44 C-10.47648314 37.36181939 -9.17855732 30.70774643 -8 24 C-7.34 24 -6.68 24 -6 24 C-5.90203125 23.27296875 -5.8040625 22.5459375 -5.703125 21.796875 C-4.57280898 14.19647415 -2.63421607 7.21212555 0 0 Z " fill="#EBEBEB" transform="translate(208,104)"/>
<path d="M0 0 C3.63 0 7.26 0 11 0 C11.29296875 6.0546875 11.29296875 6.0546875 11 8 C10.01 8.66 9.02 9.32 8 10 C7.06576355 6.98968256 6.95550089 6.13349732 8 3 C6.02 3.99 6.02 3.99 4 5 C4 6.32 4 7.64 4 9 C3.67 9.66 3.34 10.32 3 11 C3.66 11 4.32 11 5 11 C4.64930333 13.59515537 4.33376494 15.52570246 2.8125 17.6875 C0.3676535 19.45790609 -2.11556741 20.15870716 -5 21 C-5.99 21.33 -6.98 21.66 -8 22 C-8 20.02 -8 18.04 -8 16 C-5.03 16 -2.06 16 1 16 C0.67 10.72 0.34 5.44 0 0 Z " fill="#F2F2F2" transform="translate(129,88)"/>
<path d="M0 0 C3 0 3 0 4.54296875 1.50390625 C5.08566406 2.18324219 5.62835938 2.86257812 6.1875 3.5625 C10.91824365 9.17777345 15.7327802 14.08920352 22.4375 17.25 C24.2009375 18.11625 24.2009375 18.11625 26 19 C26.33 19.99 26.66 20.98 27 22 C18.83428787 21.16467663 14.00903319 18.48699149 8 13 C7.31292969 12.40445313 6.62585938 11.80890625 5.91796875 11.1953125 C2.80468995 8.34200199 1.19450205 6.71317419 0.0625 2.5625 C0.041875 1.716875 0.02125 0.87125 0 0 Z " fill="#2E2E2E" transform="translate(12,227)"/>
<path d="M0 0 C0.66 0 1.32 0 2 0 C4.6051209 4.8637695 4.08046739 9.34758851 3.7578125 14.67578125 C3.71059052 15.6009404 3.66336853 16.52609955 3.61471558 17.47929382 C3.46197985 20.42436268 3.29370651 23.36830712 3.125 26.3125 C3.01850436 28.31309664 2.91302393 30.3137476 2.80859375 32.31445312 C2.55082402 37.2103429 2.27911945 42.10528287 2 47 C1.67 47 1.34 47 1 47 C-0.27096493 42.12283698 -0.12655874 37.32429344 -0.09765625 32.32421875 C-0.0962413 31.3990596 -0.09482635 30.47390045 -0.09336853 29.52070618 C-0.08778715 26.57627073 -0.07523805 23.63191233 -0.0625 20.6875 C-0.05748259 18.68685006 -0.05292011 16.68619892 -0.04882812 14.68554688 C-0.03782381 9.79033506 -0.02057198 4.89518058 0 0 Z " fill="#E4E4E4" transform="translate(130,111)"/>
<path d="M0 0 C0.33 0 0.66 0 1 0 C1.44102348 22.59020289 1.44102348 22.59020289 -5 32 C-7.16796875 32.8046875 -7.16796875 32.8046875 -9 33 C-7.61233198 26.54389916 -6.25135692 20.246394 -3.76171875 14.12109375 C-2.11493692 9.53543973 -1.11345689 4.73811443 0 0 Z " fill="#606060" transform="translate(253,193)"/>
<path d="M0 0 C0.33 0 0.66 0 1 0 C1.12117187 1.11117187 1.24234375 2.22234375 1.3671875 3.3671875 C2.25738316 11.33506551 3.25856165 19.16352742 5 27 C5 23.04 5 19.08 5 15 C5.33 15 5.66 15 6 15 C6.09796875 15.64324219 6.1959375 16.28648437 6.296875 16.94921875 C7.55146468 24.53083396 9.61015721 31.70285865 12 39 C9.66796875 38.828125 9.66796875 38.828125 7 38 C-0.28569755 27.08086672 -0.37182056 12.62124232 0 0 Z " fill="#343434" transform="translate(0,185)"/>
<path d="M0 0 C0 0.33 0 0.66 0 1 C-1.65 1.33 -3.3 1.66 -5 2 C-5 2.33 -5 2.66 -5 3 C-11.74153283 4.25841946 -18.13484138 5.26404456 -25 5 C-25 4.67 -25 4.34 -25 4 C-31.51296512 4.9109993 -36.46821215 6.45611681 -41.9921875 10.07421875 C-44 11 -44 11 -46.2578125 10.64453125 C-46.83273438 10.43183594 -47.40765625 10.21914062 -48 10 C-31.82127082 1.50162259 -18.07383988 -0.1867561 0 0 Z " fill="#6C6D6D" transform="translate(76,0)"/>
<path d="M0 0 C0.94746094 -0.01417969 1.89492187 -0.02835937 2.87109375 -0.04296875 C5.60751644 0.19135482 7.22678123 0.79048617 9.5625 2.1875 C6.67771956 3.03214292 4.30430026 3.22392807 1.3125 3.0625 C-2.00279793 3.00841684 -4.33727597 3.36889362 -7.375 4.6875 C-11.92628861 6.61973722 -16.5526072 6.88663893 -21.4375 6.1875 C-22.0975 5.5275 -22.7575 4.8675 -23.4375 4.1875 C-23.4375 3.5275 -23.4375 2.8675 -23.4375 2.1875 C-22.38949219 2.12691406 -21.34148437 2.06632812 -20.26171875 2.00390625 C-18.88279952 1.91948262 -17.50389395 1.83483553 -16.125 1.75 C-15.43470703 1.71068359 -14.74441406 1.67136719 -14.03320312 1.63085938 C-9.19997092 1.32732305 -4.84687782 0.03288248 0 0 Z " fill="#D2D2D2" transform="translate(91.4375,99.8125)"/>
<path d="M0 0 C1.46726798 3.81489674 0.43336419 6.29011622 -1 10 C1.99650785 8.37332431 4.16424806 6.83174589 6.5625 4.375 C8.88362818 2.11338793 9.86111862 1.3487646 13 1 C11.6321397 6.16747225 8.42082106 9.22372437 4 12 C1.55272137 12.73038936 -0.42185475 12.89476958 -3 13 C-3.27429625 7.60550707 -3.36055646 4.48074195 0 0 Z " fill="#DCDCDC" transform="translate(77,84)"/>
<path d="M0 0 C0.66 0.33 1.32 0.66 2 1 C1.59160889 1.39791748 1.18321777 1.79583496 0.76245117 2.20581055 C-1.10121048 4.02766352 -2.95687184 5.85746671 -4.8125 7.6875 C-5.45509766 8.31333984 -6.09769531 8.93917969 -6.75976562 9.58398438 C-10.84903519 13.63087809 -14.00533523 17.26467189 -16 22.75 C-16.33 23.4925 -16.66 24.235 -17 25 C-17.99 25.33 -18.98 25.66 -20 26 C-16.5981548 15.0094232 -10.16669951 5.73506126 0 0 Z " fill="#C7C7C7" transform="translate(27,13)"/>
<path d="M0 0 C0.66 0.33 1.32 0.66 2 1 C1.67 1.66 1.34 2.32 1 3 C1.99 3.33 2.98 3.66 4 4 C-4.33337829 9.27378047 -12.15272658 11.42814232 -22 11 C-18.55549263 8.70366176 -16.06187717 8.45983515 -12 8 C-12 7.34 -12 6.68 -12 6 C-7.05 4.515 -7.05 4.515 -2 3 C-2 2.34 -2 1.68 -2 1 C-1.34 0.67 -0.68 0.34 0 0 Z " fill="#6A6A6A" transform="translate(224,242)"/>
<path d="M0 0 C-0.90492187 0.87011719 -0.90492187 0.87011719 -1.828125 1.7578125 C-6.11677437 5.9496214 -9.85853733 9.89512315 -13 15 C-13.33 15 -13.66 15 -14 15 C-14.42677696 10.30545342 -13.36227909 7.06016719 -11 3 C-7.30178161 0.2956778 -4.47057147 -1.49019049 0 0 Z " fill="#F7F7F7" transform="translate(90,79)"/>
<path d="M0 0 C4.62 0 9.24 0 14 0 C13.67 0.99 13.34 1.98 13 3 C13 2.34 13 1.68 13 1 C9.04 1 5.08 1 1 1 C0.83177734 2.44052734 0.83177734 2.44052734 0.66015625 3.91015625 C-0.00064938 8.53579565 -1.27271117 12.95394836 -2.5625 17.4375 C-2.79646484 18.26443359 -3.03042969 19.09136719 -3.27148438 19.94335938 C-3.84363015 21.96338426 -4.42125204 23.98185676 -5 26 C-5.66 26 -6.32 26 -7 26 C-7.33 26.99 -7.66 27.98 -8 29 C-7.35856108 22.55850777 -5.45254731 16.69542617 -3.4375 10.5625 C-3.10814453 9.54478516 -2.77878906 8.52707031 -2.43945312 7.47851562 C-1.63137923 4.98402666 -0.81638359 2.49178178 0 0 Z " fill="#888888" transform="translate(207,102)"/>
<path d="M0 0 C3.39616487 0.47683572 6.79186868 0.95688069 10.1875 1.4375 C11.14720703 1.57220703 12.10691406 1.70691406 13.09570312 1.84570312 C14.49272461 2.04389648 14.49272461 2.04389648 15.91796875 2.24609375 C16.77156982 2.36654053 17.6251709 2.4869873 18.50463867 2.61108398 C21.02066964 3.00322148 23.50697664 3.48265373 26 4 C23.49670361 6.50329639 22.52093729 6.70034576 19 7 C12.51988812 6.07792874 6.22914118 3.95067051 0 2 C0 1.34 0 0.68 0 0 Z " fill="#393939" transform="translate(42,249)"/>
<path d="M0 0 C2.79786144 2.79786144 3.4933049 6.11804187 4.625 9.8125 C4.85445312 10.52470703 5.08390625 11.23691406 5.3203125 11.97070312 C6.49564842 15.75206661 7.29925001 18.99162489 7 23 C3.61273591 21.30636796 3.17423088 17.40813352 2 14 C1.70480469 13.22269531 1.40960938 12.44539062 1.10546875 11.64453125 C-1.5567582 4.38722765 -1.5567582 4.38722765 0 0 Z " fill="#D2D3D3" transform="translate(173,126)"/>
<path d="M0 0 C1.14987792 3.44963377 0.49062874 4.93571291 -0.453125 8.328125 C-1.63653071 14.10990717 -1.70876243 20.11393552 -2 26 C-4 24 -4 24 -4.22705078 22.02880859 C-4.21657715 21.24328613 -4.20610352 20.45776367 -4.1953125 19.6484375 C-4.18886719 18.79765625 -4.18242188 17.946875 -4.17578125 17.0703125 C-4.15902344 16.18085937 -4.14226563 15.29140625 -4.125 14.375 C-4.11597656 13.4778125 -4.10695312 12.580625 -4.09765625 11.65625 C-4.0740497 9.43723414 -4.0411231 7.21874923 -4 5 C-3.34 5 -2.68 5 -2 5 C-1.7834375 4.0409375 -1.7834375 4.0409375 -1.5625 3.0625 C-1 1 -1 1 0 0 Z " fill="#EAEAEA" transform="translate(42,111)"/>
<path d="M0 0 C3 1 3 1 5 2 C5 2.33 5 2.66 5 3 C4.1646875 2.94779297 4.1646875 2.94779297 3.3125 2.89453125 C-4.29957266 2.6245084 -10.02709698 4.17573217 -16 9 C-16.66 9 -17.32 9 -18 9 C-18 7.68 -18 6.36 -18 5 C-16.27473958 4.28385417 -14.54947917 3.56770833 -12.82421875 2.8515625 C-8.08141058 0.63757496 -5.37242787 -0.5435141 0 0 Z " fill="#F2F3F3" transform="translate(62,100)"/>
<path d="M0 0 C3.3 0 6.6 0 10 0 C10 0.66 10 1.32 10 2 C8.02 2.66 6.04 3.32 4 4 C4.33 5.051875 4.66 6.10375 5 7.1875 C5.83966782 10.38873357 6.19750904 12.7411008 6 16 C3 12.375 3 12.375 3 9 C2.34 9 1.68 9 1 9 C0.67 6.03 0.34 3.06 0 0 Z " fill="#E7E7E7" transform="translate(164,104)"/>
<path d="M0 0 C0.99 0.495 0.99 0.495 2 1 C2 1.66 2 2.32 2 3 C2.99 3.33 3.98 3.66 5 4 C5.90375653 10.32629569 5.90375653 15.67370431 5 22 C4.67 22 4.34 22 4 22 C1.99763587 14.67059167 0.48701051 7.59064664 0 0 Z " fill="#4E4E4D" transform="translate(249,41)"/>
<path d="M0 0 C0.75929472 2.98613386 1.4118332 5.97514219 2 9 C1.34 9 0.68 9 0 9 C-0.09796875 9.67804688 -0.1959375 10.35609375 -0.296875 11.0546875 C-1.38275586 17.81335977 -3.20935436 23.75491436 -6 30 C-7.32 29.67 -8.64 29.34 -10 29 C-9.525625 28.62875 -9.05125 28.2575 -8.5625 27.875 C-6.47794198 25.37353038 -6.35378509 23.18406582 -6 20 C-5.34 20 -4.68 20 -4 20 C-2.47648314 13.36181939 -1.17855732 6.70774643 0 0 Z " fill="#DFDFDF" transform="translate(200,128)"/>
<path d="M0 0 C1.40517677 4.28948697 -0.01788584 6.03577168 -2 10 C-1.59070014 12.05396726 -1.59070014 12.05396726 -1 14 C-1.9375 16.75 -1.9375 16.75 -3 19 C-3.66 19 -4.32 19 -5 19 C-5.33 19.66 -5.66 20.32 -6 21 C-5.84643191 12.74920527 -4.69373926 6.85874815 0 0 Z " fill="#A5A5A5" transform="translate(10,28)"/>
<path d="M0 0 C-0.82782384 3.10433938 -1.47507284 5.43618934 -3.6875 7.8125 C-6.74116157 9.38059648 -9.60671302 9.67372241 -13 10 C-6.58490566 0 -6.58490566 0 0 0 Z " fill="#737373" transform="translate(236,236)"/>
<path d="M0 0 C1.66666667 1.66666667 3.33333333 3.33333333 5 5 C5.8971875 5.7425 5.8971875 5.7425 6.8125 6.5 C8.51035354 8.6446571 8.21486964 10.34994106 8 13 C4.78956118 11.61811547 2.95063635 10.07578097 0.75 7.375 C0.22921875 6.74335938 -0.2915625 6.11171875 -0.828125 5.4609375 C-1.21484375 4.97882813 -1.6015625 4.49671875 -2 4 C-1.34 3.67 -0.68 3.34 0 3 C0 2.01 0 1.02 0 0 Z " fill="#B3B4B4" transform="translate(49,155)"/>
<path d="M0 0 C0.33 0 0.66 0 1 0 C1.34548714 6.33393082 0.29342747 11.10261508 -2 17 C-2.66 17 -3.32 17 -4 17 C-3.979375 17.94875 -3.95875 18.8975 -3.9375 19.875 C-4 23 -4 23 -5 25 C-5.99 24.67 -6.98 24.34 -8 24 C-7.34 24 -6.68 24 -6 24 C-5.85304687 23.03513672 -5.85304687 23.03513672 -5.703125 22.05078125 C-4.44853532 14.46916604 -2.38984279 7.29714135 0 0 Z " fill="#A4A4A5" transform="translate(198,131)"/>
<path d="M0 0 C-2.31 0.66 -4.62 1.32 -7 2 C-1.06 1.505 -1.06 1.505 5 1 C-1.53819608 5.35879738 -9.48385628 5.41814033 -17 4 C-15.68 3.67 -14.36 3.34 -13 3 C-13 2.34 -13 1.68 -13 1 C-11.58622218 0.63447197 -10.16879424 0.28304505 -8.75 -0.0625 C-7.96109375 -0.25972656 -7.1721875 -0.45695313 -6.359375 -0.66015625 C-3.89605178 -1.01497267 -2.34395868 -0.76877544 0 0 Z " fill="#414141" transform="translate(212,250)"/>
<path d="M0 0 C3.01085009 -0.13205483 4.55616601 0.07182332 7.15625 1.671875 C7.671875 2.166875 8.1875 2.661875 8.71875 3.171875 C0.47787154 4.61764315 -7.11613792 3.47355953 -15.28125 2.171875 C-15.28125 1.841875 -15.28125 1.511875 -15.28125 1.171875 C-10.18992996 0.74313226 -5.09471273 0.38384822 0 0 Z " fill="#393939" transform="translate(194.28125,251.828125)"/>
<path d="M0 0 C0 0.33 0 0.66 0 1 C-5.94 1.495 -5.94 1.495 -12 2 C-12 2.66 -12 3.32 -12 4 C-13.7902061 4.67057887 -15.58221489 5.3363469 -17.375 6 C-18.37273438 6.37125 -19.37046875 6.7425 -20.3984375 7.125 C-23 8 -23 8 -25 8 C-25 7.34 -25 6.68 -25 6 C-23.02 5.34 -21.04 4.68 -19 4 C-19 3.34 -19 2.68 -19 2 C-12.53205867 0.48766299 -6.64409958 -0.21432579 0 0 Z " fill="#A0A0A0" transform="translate(63,2)"/>
<path d="M0 0 C0.94746094 -0.01417969 1.89492187 -0.02835937 2.87109375 -0.04296875 C5.60751644 0.19135482 7.22678123 0.79048617 9.5625 2.1875 C6.71307897 3.00895471 4.27112455 3.27264027 1.3125 3.1875 C-3.03354558 3.12984102 -7.13874832 3.56222703 -11.4375 4.1875 C-7.98134722 0.40218982 -5.00081396 0.03392682 0 0 Z " fill="#F5F5F5" transform="translate(91.4375,99.8125)"/>
<path d="M0 0 C2.25245881 2.68841859 3.88213958 4.64641875 5 8 C4.34 8 3.68 8 3 8 C3.33 10.31 3.66 12.62 4 15 C2 13.1875 2 13.1875 0 11 C0 10.01 0 9.02 0 8 C-0.66 8 -1.32 8 -2 8 C-2.66 6.35 -3.32 4.7 -4 3 C-1.03 4.98 -1.03 4.98 2 7 C2 6.01 2 5.02 2 4 C1.34 4 0.68 4 0 4 C0 2.68 0 1.36 0 0 Z " fill="#404040" transform="translate(242,23)"/>
<path d="M0 0 C0.99 0.495 0.99 0.495 2 1 C2.33 1.99 2.66 2.98 3 4 C3.66 3.67 4.32 3.34 5 3 C5 5.64 5 8.28 5 11 C5.99 11.33 6.98 11.66 8 12 C7.67 14.64 7.34 17.28 7 20 C2.99515344 13.99273016 1.28253451 7.0539398 0 0 Z " fill="#A5A5A5" transform="translate(176,144)"/>
<path d="M0 0 C0.33 0 0.66 0 1 0 C1.11269443 6.1105424 0.89604368 11.95170514 0 18 C-0.66 17.34 -1.32 16.68 -2 16 C-2.66 16.99 -3.32 17.98 -4 19 C-3.26309887 12.51527007 -1.64681249 6.30760257 0 0 Z " fill="#555555" transform="translate(253,193)"/>
<path d="M0 0 C1.22589844 0.29197266 1.22589844 0.29197266 2.4765625 0.58984375 C3.41628906 0.82380859 3.41628906 0.82380859 4.375 1.0625 C4.375 1.3925 4.375 1.7225 4.375 2.0625 C2.065 2.3925 -0.245 2.7225 -2.625 3.0625 C0.345 3.5575 0.345 3.5575 3.375 4.0625 C3.045 5.7125 2.715 7.3625 2.375 9.0625 C1.055 8.7325 -0.265 8.4025 -1.625 8.0625 C-0.635 7.4025 0.355 6.7425 1.375 6.0625 C0.42625 5.815 -0.5225 5.5675 -1.5 5.3125 C-4.625 4.0625 -4.625 4.0625 -6 1.9375 C-6.20625 1.31875 -6.4125 0.7 -6.625 0.0625 C-3.99249612 -1.25375194 -2.82320944 -0.68563658 0 0 Z " fill="#B4B4B4" transform="translate(147.625,156.9375)"/>
<path d="M0 0 C3.63 0 7.26 0 11 0 C11.29296875 6.0546875 11.29296875 6.0546875 11 8 C10.01 8.66 9.02 9.32 8 10 C7.01879536 6.94736336 7.01879536 5.05263664 8 2 C5.36 1.67 2.72 1.34 0 1 C0 0.67 0 0.34 0 0 Z " fill="#E3E3E4" transform="translate(129,88)"/>
<path d="M0 0 C4.875 4.625 4.875 4.625 6 8 C3.75 8.25 3.75 8.25 1 8 C-1.3125 6.125 -1.3125 6.125 -3 4 C-3 3.34 -3 2.68 -3 2 C-2.34 2 -1.68 2 -1 2 C-0.67 1.34 -0.34 0.68 0 0 Z " fill="#B2B2B2" transform="translate(134,159)"/>
<path d="M0 0 C3.96 0 7.92 0 12 0 C11.67 0.99 11.34 1.98 11 3 C9.54257537 3.08096803 8.08387193 3.13917774 6.625 3.1875 C5.81289062 3.22230469 5.00078125 3.25710937 4.1640625 3.29296875 C3.44992188 3.19628906 2.73578125 3.09960938 2 3 C1.34 2.01 0.68 1.02 0 0 Z " fill="#EEEEEE" transform="translate(140,104)"/>
<path d="M0 0 C0.125 3.375 0.125 3.375 0 7 C-0.66 7.66 -1.32 8.32 -2 9 C-2 6.69 -2 4.38 -2 2 C-3.6396875 2.7425 -3.6396875 2.7425 -5.3125 3.5 C-9 5 -9 5 -12 5 C-9.68950414 2.24517802 -8.42614128 1.10227391 -4.875 0.25 C-2 0 -2 0 0 0 Z " fill="#C1C1C1" transform="translate(92,76)"/>
<path d="M0 0 C2.475 0.495 2.475 0.495 5 1 C5 1.66 5 2.32 5 3 C5.99 3 6.98 3 8 3 C8.33 4.32 8.66 5.64 9 7 C8.34 6.67 7.68 6.34 7 6 C7 5.34 7 4.68 7 4 C6.01 4.495 6.01 4.495 5 5 C5 5.99 5 6.98 5 8 C2.20127563 5.47211993 0.54226981 3.79588866 0 0 Z " fill="#292929" transform="translate(8,223)"/>
<path d="M0 0 C0.66 0 1.32 0 2 0 C2.66 1.65 3.32 3.3 4 5 C4.66 5 5.32 5 6 5 C7.35439668 7.70879335 7.06501451 10.00933268 7 13 C6.731875 12.360625 6.46375 11.72125 6.1875 11.0625 C5.11332248 8.66868314 5.11332248 8.66868314 2 8 C1.26953125 6.15234375 1.26953125 6.15234375 0.8125 3.9375 C0.65394531 3.20402344 0.49539062 2.47054687 0.33203125 1.71484375 C0.22246094 1.14894531 0.11289063 0.58304687 0 0 Z " fill="#CBCBCB" transform="translate(165,113)"/>
<path d="M0 0 C0.66 0.33 1.32 0.66 2 1 C1.67 1.66 1.34 2.32 1 3 C1.99 3.33 2.98 3.66 4 4 C2.54462432 4.83848804 1.08559627 5.67063934 -0.375 6.5 C-1.59316406 7.19609375 -1.59316406 7.19609375 -2.8359375 7.90625 C-5 9 -5 9 -7 9 C-7 8.34 -7 7.68 -7 7 C-6.360625 6.7525 -5.72125 6.505 -5.0625 6.25 C-2.80939427 5.19851273 -2.80939427 5.19851273 -2.375 2.9375 C-2.189375 1.9784375 -2.189375 1.9784375 -2 1 C-1.34 0.67 -0.68 0.34 0 0 Z " fill="#4E4F4E" transform="translate(224,242)"/>
<path d="M0 0 C0.99 0.33 1.98 0.66 3 1 C1.76044505 4.71866485 -0.18554854 6.32283886 -3 9 C-3.66 9.66 -4.32 10.32 -5 11 C-5.39169887 8.33644766 -5.40564529 6.60775627 -3.88671875 4.33203125 C-2.63610683 2.8489112 -1.32135486 1.42045648 0 0 Z " fill="#C0C0C0" transform="translate(106,105)"/>
<path d="M0 0 C0.99 0.33 1.98 0.66 3 1 C2.34 2.98 1.68 4.96 1 7 C1.66 7 2.32 7 3 7 C2.67 7.99 2.34 8.98 2 10 C2 9.34 2 8.68 2 8 C1.34 8 0.68 8 0 8 C-1.4606285 5.35261084 -2 4.10551666 -2 1 C-1.34 0.67 -0.68 0.34 0 0 Z " fill="#ADADAD" transform="translate(44,148)"/>
<path d="M0 0 C0.66 0 1.32 0 2 0 C1.21769326 3.91153372 -0.2470538 7.42668659 -2 11 C-2.99 11.33 -3.98 11.66 -5 12 C-3.68938409 7.76570244 -2.05643741 3.92592596 0 0 Z " fill="#C0C0C0" transform="translate(12,27)"/>
<path d="M0 0 C-1.5830577 4.2742558 -4.50568404 6.26531794 -8 9 C-5.4 0 -5.4 0 0 0 Z " fill="#323233" transform="translate(109,109)"/>
<path d="M0 0 C0.66 0 1.32 0 2 0 C0.60846256 4.42761914 -1.52071486 6.9556255 -5 10 C-5.66 10 -6.32 10 -7 10 C-5.96905133 7.42262834 -5.4891374 6.23715753 -2.9375 5 C-0.78719721 4.1704178 -0.78719721 4.1704178 -0.25 1.875 C-0.1675 1.25625 -0.085 0.6375 0 0 Z " fill="#CBCCCB" transform="translate(88,85)"/>
<path d="M0 0 C4.17122846 1.0976917 5.2779278 2.37356736 7.5625 5.9375 C6.97082031 5.73253906 6.37914062 5.52757812 5.76953125 5.31640625 C1.72589184 3.9377429 -2.20605249 2.61999153 -6.4375 1.9375 C-3.4375 -0.0625 -3.4375 -0.0625 0 0 Z " fill="#5D5D5D" transform="translate(216.4375,5.0625)"/>
<path d="M0 0 C0.66 0.33 1.32 0.66 2 1 C1.25 3.9375 1.25 3.9375 0 7 C-2.125 7.875 -2.125 7.875 -4 8 C-4 4.09161134 -2.49432124 2.88405893 0 0 Z " fill="#7B7B7B" transform="translate(241,228)"/>
<path d="M0 0 C0.185625 0.9590625 0.185625 0.9590625 0.375 1.9375 C0.684375 2.9584375 0.684375 2.9584375 1 4 C1.66 4.33 2.32 4.66 3 5 C1.6875 6.5 1.6875 6.5 0 8 C-0.99 8 -1.98 8 -3 8 C-1.125 1.125 -1.125 1.125 0 0 Z " fill="#D2D2D2" transform="translate(43,105)"/>
<path d="M0 0 C2.39763185 2.39763185 2.34280586 3.33273498 2.625 6.625 C2.69976562 7.44226563 2.77453125 8.25953125 2.8515625 9.1015625 C2.90054688 9.72804687 2.94953125 10.35453125 3 11 C-0.10877662 8.20042965 -0.64288953 6.19604804 -1 2 C-0.67 1.34 -0.34 0.68 0 0 Z " fill="#DBDBDB" transform="translate(173,126)"/>
<path d="M0 0 C3.3 0 6.6 0 10 0 C10 0.66 10 1.32 10 2 C3.375 3 3.375 3 0 3 C0 2.01 0 1.02 0 0 Z " fill="#F1F1F1" transform="translate(164,104)"/>
<path d="M0 0 C0.57234375 0.21527344 1.1446875 0.43054688 1.734375 0.65234375 C0.49493224 1.52175869 -0.75769559 2.37239832 -2.015625 3.21484375 C-2.71171875 3.69050781 -3.4078125 4.16617188 -4.125 4.65625 C-6.265625 5.65234375 -6.265625 5.65234375 -8.53125 5.3046875 C-9.10359375 5.08941406 -9.6759375 4.87414062 -10.265625 4.65234375 C-9.02618224 3.78292881 -7.77355441 2.93228918 -6.515625 2.08984375 C-5.81953125 1.61417969 -5.1234375 1.13851562 -4.40625 0.6484375 C-2.265625 -0.34765625 -2.265625 -0.34765625 0 0 Z " fill="#BBBBBB" transform="translate(54.265625,99.34765625)"/>
<path d="M0 0 C0.99 0 1.98 0 3 0 C3 0.66 3 1.32 3 2 C5.31 2 7.62 2 10 2 C10 2.66 10 3.32 10 4 C3.9453125 4.1953125 3.9453125 4.1953125 2 4 C1.34 3.34 0.68 2.68 0 2 C0 1.34 0 0.68 0 0 Z " fill="#EFEFEF" transform="translate(68,102)"/>
<path d="M0 0 C0.625 1.8125 0.625 1.8125 1 4 C0.01 5.485 0.01 5.485 -1 7 C-1.38499891 8.65549531 -1.72793135 10.3222433 -2 12 C-1.01 12.33 -0.02 12.66 1 13 C-0.32 13 -1.64 13 -3 13 C-3.27429625 7.60550707 -3.36055646 4.48074195 0 0 Z " fill="#A4A4A4" transform="translate(77,84)"/>
<path d="M0 0 C1.32 0.33 2.64 0.66 4 1 C2.40311734 4.19376532 -0.83383035 5.57591496 -4 7 C-4.99 7 -5.98 7 -7 7 C-6.21625 6.401875 -5.4325 5.80375 -4.625 5.1875 C-1.85425677 3.08914751 -1.85425677 3.08914751 0 0 Z " fill="#5C5C5C" transform="translate(34,10)"/>
<path d="M0 0 C0.33 0 0.66 0 1 0 C1.33 4.29 1.66 8.58 2 13 C1.67 12.34 1.34 11.68 1 11 C0.34 11 -0.32 11 -1 11 C-0.67 7.37 -0.34 3.74 0 0 Z " fill="#D6D6D6" transform="translate(40,131)"/>
<path d="M0 0 C0.75 1.5625 0.75 1.5625 1 4 C-0.13084437 6.50286409 -1.52139516 8.67007722 -3 11 C-3.66 11 -4.32 11 -5 11 C-3.77472971 6.94718288 -2.30119506 3.55639236 0 0 Z " fill="#787878" transform="translate(10,28)"/>
<path d="M0 0 C3.36179774 1.44077046 5.59156268 3.24750021 8 6 C8 6.66 8 7.32 8 8 C4.63820226 6.55922954 2.40843732 4.75249979 0 2 C0 1.34 0 0.68 0 0 Z " fill="#404040" transform="translate(230,18)"/>
<path d="M0 0 C5.53846154 0.61538462 5.53846154 0.61538462 7.875 2.5625 C8.431875 3.2740625 8.431875 3.2740625 9 4 C6.50907189 5.24546405 5.58919267 4.7767578 3 4 C3 3.34 3 2.68 3 2 C2.01 2 1.02 2 0 2 C0 1.34 0 0.68 0 0 Z " fill="#3A3A3A" transform="translate(30,244)"/>
<path d="M0 0 C0.515625 0.2475 1.03125 0.495 1.5625 0.75 C-4.8375 4.81153846 -4.8375 4.81153846 -7.875 4.5 C-8.390625 4.2525 -8.90625 4.005 -9.4375 3.75 C-3.0375 -0.31153846 -3.0375 -0.31153846 0 0 Z " fill="#7B7B7B" transform="translate(37.4375,6.25)"/>
<path d="M0 0 C0 0.99 0 1.98 0 3 C-1.65 3 -3.3 3 -5 3 C-5.33 2.01 -5.66 1.02 -6 0 C-3.50907189 -1.24546405 -2.58919267 -0.7767578 0 0 Z " fill="#191919" transform="translate(80,98)"/>
<path d="M0 0 C1.423125 0.37125 1.423125 0.37125 2.875 0.75 C3.205 1.41 3.535 2.07 3.875 2.75 C0.575 2.42 -2.725 2.09 -6.125 1.75 C-3.125 -0.25 -3.125 -0.25 0 0 Z " fill="#707070" transform="translate(209.125,3.25)"/>
<path d="M0 0 C2.64 0 5.28 0 8 0 C5.77810176 2.22189824 3.91517292 2.92598892 1 4 C0.67 2.68 0.34 1.36 0 0 Z " fill="#F9F9F9" transform="translate(131,89)"/>
<path d="M0 0 C0.66 0.33 1.32 0.66 2 1 C-1.465 3.97 -1.465 3.97 -5 7 C-5.33 6.01 -5.66 5.02 -6 4 C-4.02 2.68 -2.04 1.36 0 0 Z " fill="#E2E2E2" transform="translate(84,79)"/>
<path d="M0 0 C0.66 0 1.32 0 2 0 C4.125 4.625 4.125 4.625 3 8 C1.5 6.8125 1.5 6.8125 0 5 C-0.1875 2.3125 -0.1875 2.3125 0 0 Z " fill="#575757" transform="translate(245,31)"/>
</svg>
