<?xml version="1.0" standalone="no"?>
<!DOCTYPE svg PUBLIC "-//W3C//DTD SVG 20010904//EN"
 "http://www.w3.org/TR/2001/REC-SVG-20010904/DTD/svg10.dtd">
<svg version="1.0" xmlns="http://www.w3.org/2000/svg"
 width="32.000000pt" height="32.000000pt" viewBox="0 0 32.000000 32.000000"
 preserveAspectRatio="xMidYMid meet">
<metadata>
Created by potrace 1.16, written by Peter Selinger 2001-2019
</metadata>
<g transform="translate(0.000000,32.000000) scale(0.100000,-0.100000)"
fill="#000000" stroke="none">
<path d="M103 250 c-37 -22 -53 -48 -53 -85 0 -58 55 -115 110 -115 56 0 110
58 112 119 2 81 -93 128 -169 81z m68 -27 c0 -11 3 -13 6 -5 6 14 33 16 33 2
0 -5 7 -7 17 -3 14 6 15 0 10 -42 -9 -62 -30 -85 -77 -85 -45 0 -69 23 -77 74
-4 28 -2 36 10 36 8 0 18 -6 21 -12 3 -7 3 -1 0 15 -5 20 -2 27 9 27 8 0 18
-6 20 -12 3 -8 6 -6 6 5 1 9 6 17 11 17 6 0 10 -8 11 -17z"/>
</g>
</svg>
