<?xml version="1.0" encoding="UTF-8"?>
<svg version="1.1" xmlns="http://www.w3.org/2000/svg" width="256" height="256">
<path d="M0 0 C3.49449314 0.00770847 6.98896515 0.00052051 10.48345947 -0.0041585 C16.34678458 -0.00958405 22.20999554 -0.00250939 28.07330322 0.01186323 C34.80806123 0.02818359 41.54254656 0.02289279 48.27729797 0.00638402 C54.10714516 -0.00732302 59.93691128 -0.00910595 65.76676941 -0.00129998 C69.22787937 0.0033264 72.68886209 0.0041432 76.14996338 -0.00590944 C100.69317078 -0.05483685 123.43692173 0.87338398 143.05767822 17.40297651 C144.0225415 18.19961714 144.0225415 18.19961714 145.00689697 19.01235151 C156.34606836 29.30679025 161.97695688 44.5461195 164.05767822 59.40297651 C164.14682586 61.79371228 164.18554308 64.1866051 164.18707275 66.5790019 C164.18970123 67.61700941 164.18970123 67.61700941 164.19238281 68.67598677 C164.19676257 70.95089474 164.19387475 73.22572407 164.19049072 75.50063276 C164.19116541 77.09759234 164.19213681 78.69455183 164.19338989 80.29151106 C164.19486208 83.63783957 164.19272969 86.98414135 164.18804932 90.33046675 C164.18238474 94.58436224 164.18561321 98.83819417 164.19162178 103.09208727 C164.19526812 106.39270187 164.19406973 109.6933019 164.19149399 112.99391699 C164.19083424 114.5601364 164.19161921 116.1263572 164.19397354 117.69257498 C164.20386203 126.12729493 164.02600597 134.46175512 163.17410278 142.86487532 C162.89961728 145.52773816 162.89961728 145.52773816 164.05767822 148.40297651 C164.20470135 149.83160077 164.30485478 151.26535149 164.37408447 152.69985151 C164.41630127 153.56465132 164.45851807 154.42945112 164.50201416 155.32045698 C166.87167326 212.1237316 166.87167326 212.1237316 147.87799072 235.03188276 C134.81268262 249.06102507 116.50931091 255.62430471 97.58892822 256.5777812 C93.84720037 256.63554894 90.11214677 256.62842417 86.37017822 256.59047651 C85.01698988 256.58291142 83.66379968 256.57567346 82.31060791 256.568748 C73.47242665 256.50763647 64.63995583 256.29791971 55.80767822 255.96547651 C54.7613623 255.92640181 53.71504639 255.8873271 52.63702393 255.84706831 C45.44201809 255.5310898 45.44201809 255.5310898 42.05767822 254.40297651 C39.83261017 254.30493004 37.60472059 254.26747697 35.37750244 254.26113081 C34.70211426 254.25765638 34.02672607 254.25418196 33.33087158 254.25060225 C31.86258644 254.24325053 30.39429022 254.23790203 28.92599106 254.23431158 C26.58544869 254.22711247 24.24511194 254.211413 21.90463257 254.1929698 C15.24881101 254.14071578 8.59309422 254.09271461 1.93707275 254.07704878 C-2.13856162 254.06682968 -6.21368821 254.03714763 -10.28911972 253.99572897 C-11.82687366 253.98359352 -13.36469999 253.97826494 -14.90250015 253.9805274 C-35.01822981 254.00280405 -53.95678725 249.91256674 -68.87591553 235.48500776 C-69.89878662 234.45440229 -69.89878662 234.45440229 -70.94232178 233.40297651 C-71.51079834 232.8705937 -72.0792749 232.33821089 -72.66497803 231.78969526 C-73.80716476 230.7111401 -74.88558905 229.56538251 -75.94232178 228.40297651 C-75.94232178 227.74297651 -75.94232178 227.08297651 -75.94232178 226.40297651 C-76.60232178 226.40297651 -77.26232178 226.40297651 -77.94232178 226.40297651 C-86.1787239 211.96181812 -90.05600681 199.42020975 -90.55462646 182.77065229 C-90.59208355 181.68969849 -90.62954063 180.60874468 -90.66813278 179.49503469 C-91.04353269 167.8383021 -91.1250121 156.1820843 -91.14544678 144.52016401 C-91.14827415 143.40339403 -91.15110153 142.28662405 -91.15401459 141.13601255 C-91.16880781 135.25071446 -91.17816754 129.36543972 -91.18255615 123.48012495 C-91.1880807 117.45683383 -91.2122491 111.43376416 -91.24052811 105.41054296 C-91.25923556 100.71761653 -91.26436391 96.02474337 -91.26589203 91.33178282 C-91.26888948 89.11129851 -91.27681758 86.89081446 -91.29007721 84.67036772 C-91.42716168 60.0017793 -87.96663363 37.42857497 -70.34075928 18.71938276 C-51.05966993 0.09774435 -25.14559621 -0.07303448 0 0 Z " fill="#1B9AFA" transform="translate(90.94232177734375,-0.40297651290893555)"/>
<path d="M0 0 C1.15926498 -0.00902847 2.31852997 -0.01805695 3.51292419 -0.02735901 C5.96472602 -0.04184563 8.41656637 -0.05074429 10.8684082 -0.05444336 C14.58417665 -0.06628856 18.29825603 -0.11545065 22.01367188 -0.16601562 C40.17695344 -0.29078394 52.77365866 1.37289022 66.2109375 14.46875 C77.11630938 25.98336053 79.36552564 37.91191881 79.33325195 53.30371094 C79.33836288 54.57161469 79.34347382 55.83951843 79.34873962 57.14584351 C79.36204575 60.60064847 79.3627175 64.05534347 79.36017632 67.51016903 C79.35910044 70.40729679 79.36400589 73.30440285 79.36878175 76.20152593 C79.37984891 83.04517467 79.38033074 89.88876853 79.37426758 96.73242188 C79.36823585 103.76075394 79.38052475 110.7888854 79.40183765 117.81718326 C79.41953375 123.8786771 79.42544229 129.94010757 79.4221999 136.00162625 C79.4203989 139.60974925 79.42290311 143.21772927 79.43691444 146.82582855 C79.4519872 150.85764793 79.4424532 154.88906732 79.4309082 158.92089844 C79.43855194 160.09431793 79.44619568 161.26773743 79.45407104 162.47671509 C79.3472401 179.46674719 75.05662909 191.45317885 63.05859375 203.37109375 C50.45184717 215.4514626 34.28662818 215.19552937 17.90771484 215.07788086 C14.30169533 215.05855678 10.69948593 215.09824731 7.09375 215.14257812 C4.77473732 215.14286836 2.45572113 215.13973165 0.13671875 215.1328125 C-0.92705994 215.14809494 -1.99083862 215.16337738 -3.08685303 215.17912292 C-10.64033321 215.06241348 -16.05790937 213.20656608 -21.94140625 208.37109375 C-26.63744112 202.51200489 -28.07292323 197.7064444 -28.00390625 190.18359375 C-27.99488281 188.91128906 -27.98585938 187.63898438 -27.9765625 186.328125 C-27.96496094 185.35230469 -27.95335938 184.37648437 -27.94140625 183.37109375 C-27.19117188 183.32210937 -26.4409375 183.273125 -25.66796875 183.22265625 C-24.13269531 183.11050781 -24.13269531 183.11050781 -22.56640625 182.99609375 C-21.56867188 182.92648438 -20.5709375 182.856875 -19.54296875 182.78515625 C4.01813334 180.07639614 31.44783587 168.89166544 47.05859375 150.37109375 C47.39307634 147.20326175 47.39307634 147.20326175 47.05859375 144.37109375 C40.31225496 144.22443421 37.50728619 147.40949536 32.765625 151.90234375 C21.08456751 162.55519849 5.88383394 169.39353027 -9.44140625 172.87109375 C-10.14604004 173.03125977 -10.85067383 173.19142578 -11.57666016 173.35644531 C-17.26834015 174.50625271 -21.89733013 174.37109375 -27.94140625 174.37109375 C-27.94140625 158.20109375 -27.94140625 142.03109375 -27.94140625 125.37109375 C-35.20140625 125.37109375 -42.46140625 125.37109375 -49.94140625 125.37109375 C-54.94140625 122.37109375 -54.94140625 122.37109375 -56.94140625 119.37109375 C-57.72836887 111.20746627 -55.43724226 104.176903 -53.0546875 96.4375 C-52.64515291 95.07418312 -52.23700644 93.71044858 -51.83015442 92.34632874 C-50.97412074 89.47820227 -50.11298167 86.61167747 -49.24908447 83.74591064 C-47.32445563 77.33587203 -45.49436908 70.89881285 -43.65600204 64.46363449 C-42.43866999 60.2114612 -41.20784507 55.96317804 -39.97854424 51.71445274 C-38.9357581 48.10844722 -37.89708737 44.50134549 -36.86645508 40.8918457 C-35.84072825 37.30025222 -34.80485648 33.71172769 -33.76192665 30.12509346 C-33.37358314 28.78301945 -32.98882846 27.4399009 -32.60796165 26.09568596 C-28.28734947 10.86387152 -28.28734947 10.86387152 -21.56640625 5.12109375 C-20.75042969 4.40179688 -20.75042969 4.40179688 -19.91796875 3.66796875 C-13.77761738 -0.36087839 -7.07151029 0.03418173 0 0 Z " fill="#D2E9FD" transform="translate(155.94140625,20.62890625)"/>
<path d="M0 0 C3.49449314 0.00770847 6.98896515 0.00052051 10.48345947 -0.0041585 C16.34678458 -0.00958405 22.20999554 -0.00250939 28.07330322 0.01186323 C34.80806123 0.02818359 41.54254656 0.02289279 48.27729797 0.00638402 C54.10714516 -0.00732302 59.93691128 -0.00910595 65.76676941 -0.00129998 C69.22787937 0.0033264 72.68886209 0.0041432 76.14996338 -0.00590944 C100.69317078 -0.05483685 123.43692173 0.87338398 143.05767822 17.40297651 C144.0225415 18.19961714 144.0225415 18.19961714 145.00689697 19.01235151 C156.34413922 29.30503885 161.98030303 44.54717969 164.05767822 59.40297651 C164.14693066 61.82017091 164.18554469 64.23950648 164.18707275 66.65834761 C164.18970123 67.70840231 164.18970123 67.70840231 164.19238281 68.77967024 C164.19676004 71.07861055 164.19387729 73.377473 164.19049072 75.67641401 C164.1911651 77.28535174 164.19213624 78.89428937 164.19338989 80.50322676 C164.1948614 83.87053605 164.19273045 87.23781876 164.18804932 90.60512495 C164.18236157 94.90435299 164.18562846 99.20351847 164.19162178 103.5027442 C164.19525 106.82460192 164.19407828 110.14644502 164.19149399 113.4683032 C164.19083049 115.05261063 164.1916328 116.63691942 164.19397354 118.22122526 C164.19653631 120.44379093 164.19260851 122.66625796 164.18707275 124.88881636 C164.18627716 126.14979139 164.18548157 127.41076643 164.18466187 128.70995283 C164.04830441 132.67559192 163.6049726 136.47514879 163.05767822 140.40297651 C162.72767822 140.40297651 162.39767822 140.40297651 162.05767822 140.40297651 C162.05181198 139.44434706 162.04594574 138.4857176 162.03990173 137.49803877 C161.98237266 128.40766388 161.90945726 119.31752131 161.82196331 110.22738409 C161.77747674 105.55546412 161.73817451 100.88362702 161.71124268 96.21157026 C161.68499085 91.6920841 161.64443891 87.17292063 161.59449196 82.65363646 C161.57796965 80.94035727 161.56636523 79.22702247 161.56006432 77.51367521 C161.5045738 63.79560619 160.71969864 49.78300636 154.05767822 37.40297651 C153.39767822 37.07297651 152.73767822 36.74297651 152.05767822 36.40297651 C151.72767822 37.39297651 151.39767822 38.38297651 151.05767822 39.40297651 C147.64444457 38.26523196 147.13767301 37.49994529 145.12017822 34.65297651 C144.59681885 33.93239058 144.07345947 33.21180464 143.53424072 32.46938276 C143.0469751 31.7874687 142.55970947 31.10555464 142.05767822 30.40297651 C139.32902208 26.68208178 137.02288116 24.71601156 133.05767822 22.40297651 C133.05767822 21.74297651 133.05767822 21.08297651 133.05767822 20.40297651 C131.39143829 19.735244 129.724655 19.06886737 128.05767822 18.40297651 C127.05092041 18.00078901 126.0441626 17.59860151 125.00689697 17.18422651 C111.98565745 12.0692965 100.50630717 10.25160853 86.56549072 10.25771284 C84.8927282 10.25267492 84.8927282 10.25267492 83.18617249 10.24753523 C79.51832956 10.23807768 75.85053257 10.23608445 72.18267822 10.23500776 C69.61309796 10.23179058 67.04351788 10.22842617 64.47393799 10.2249217 C59.09087624 10.21894269 53.70783247 10.21703739 48.32476807 10.21767378 C42.14634087 10.21827244 35.96800157 10.20775684 29.78959656 10.19193012 C23.80153547 10.17714998 17.81352116 10.17368926 11.82543945 10.1742835 C9.2995976 10.1731125 6.77375492 10.16874086 4.2479248 10.16095114 C-29.56882241 9.12428172 -29.56882241 9.12428172 -58.94232178 23.40297651 C-59.91040771 24.25891401 -60.87849365 25.11485151 -61.87591553 25.99672651 C-75.75083093 38.66410538 -81.4214549 56.58161726 -82.42254639 75.11196089 C-82.67453247 82.45803896 -82.69136913 89.80331253 -82.69232178 97.15297651 C-82.71412129 100.91169691 -82.74277383 104.67031443 -82.77276611 108.42897749 C-82.79181801 110.82991791 -82.80824281 113.23088083 -82.82183838 115.63185835 C-82.8841469 124.25468176 -83.2225695 132.80946904 -83.94232178 141.40297651 C-84.27232178 141.40297651 -84.60232178 141.40297651 -84.94232178 141.40297651 C-85.27232178 119.29297651 -85.60232178 97.18297651 -85.94232178 74.40297651 C-86.35239946 97.84008643 -86.35239946 97.84008643 -86.70404053 121.27797651 C-86.71402258 122.01625685 -86.72400463 122.75453718 -86.73428917 123.51518965 C-86.79564623 128.0802849 -86.85515017 132.64540205 -86.91381073 137.21053267 C-86.94159541 139.34712029 -86.97040635 141.48369167 -86.99951172 143.62026167 C-87.10376174 151.35714236 -87.18399561 159.09373304 -87.22943115 166.83119917 C-87.2461643 169.18510243 -87.2699217 171.53896779 -87.3012085 173.89272261 C-87.47390092 187.39183733 -86.84498365 199.42228599 -82.94232178 212.40297651 C-82.56313238 213.72271826 -82.18587057 215.04301568 -81.81072998 216.36391401 C-81.52415527 217.36680464 -81.23758057 218.36969526 -80.94232178 219.40297651 C-83.97152416 217.88837532 -84.24089258 215.64143631 -85.44232178 212.52797651 C-86.07654053 210.9230937 -86.07654053 210.9230937 -86.72357178 209.28578901 C-89.64826545 200.71394165 -90.28546156 191.75841771 -90.55462646 182.77065229 C-90.59208355 181.68969849 -90.62954063 180.60874468 -90.66813278 179.49503469 C-91.04353269 167.8383021 -91.1250121 156.1820843 -91.14544678 144.52016401 C-91.14827415 143.40339403 -91.15110153 142.28662405 -91.15401459 141.13601255 C-91.16880781 135.25071446 -91.17816754 129.36543972 -91.18255615 123.48012495 C-91.1880807 117.45683383 -91.2122491 111.43376416 -91.24052811 105.41054296 C-91.25923556 100.71761653 -91.26436391 96.02474337 -91.26589203 91.33178282 C-91.26888948 89.11129851 -91.27681758 86.89081446 -91.29007721 84.67036772 C-91.42716168 60.0017793 -87.96663363 37.42857497 -70.34075928 18.71938276 C-51.05966993 0.09774435 -25.14559621 -0.07303448 0 0 Z " fill="#60D8FD" transform="translate(90.94232177734375,-0.40297651290893555)"/>
<path d="M0 0 C2.2109375 1.71484375 2.2109375 1.71484375 4.375 3.9375 C22.07330768 20.62599433 45.90781389 29.75430303 70.12451172 29.46826172 C95.58895792 28.57958837 116.81478135 17.37096481 135.5625 0.65234375 C138.33839823 -1.22939496 139.71525544 -1.45051184 143 -1 C144 0 144 0 144.5 2.625 C143.5912619 8.75898217 137.87628658 12.43708248 133.125 16.0625 C109.54549406 33.14212522 82.83797526 42.24552259 53.48046875 38.6953125 C31.26654881 34.98668532 6.85505424 23.22325129 -8 6 C-8.25 2.75 -8.25 2.75 -8 0 C-5.02878399 -1.485608 -3.17083885 -0.81434695 0 0 Z " fill="#1D2530" transform="translate(60,165)"/>
<path d="M0 0 C3.49449314 0.00770847 6.98896515 0.00052051 10.48345947 -0.0041585 C16.34678458 -0.00958405 22.20999554 -0.00250939 28.07330322 0.01186323 C34.80806123 0.02818359 41.54254656 0.02289279 48.27729797 0.00638402 C54.10714516 -0.00732302 59.93691128 -0.00910595 65.76676941 -0.00129998 C69.22787937 0.0033264 72.68886209 0.0041432 76.14996338 -0.00590944 C100.69317078 -0.05483685 123.43692173 0.87338398 143.05767822 17.40297651 C144.0225415 18.19961714 144.0225415 18.19961714 145.00689697 19.01235151 C156.34413922 29.30503885 161.98030303 44.54717969 164.05767822 59.40297651 C164.14693066 61.82017091 164.18554469 64.23950648 164.18707275 66.65834761 C164.18970123 67.70840231 164.18970123 67.70840231 164.19238281 68.77967024 C164.19676004 71.07861055 164.19387729 73.377473 164.19049072 75.67641401 C164.1911651 77.28535174 164.19213624 78.89428937 164.19338989 80.50322676 C164.1948614 83.87053605 164.19273045 87.23781876 164.18804932 90.60512495 C164.18236157 94.90435299 164.18562846 99.20351847 164.19162178 103.5027442 C164.19525 106.82460192 164.19407828 110.14644502 164.19149399 113.4683032 C164.19083049 115.05261063 164.1916328 116.63691942 164.19397354 118.22122526 C164.19653631 120.44379093 164.19260851 122.66625796 164.18707275 124.88881636 C164.18627716 126.14979139 164.18548157 127.41076643 164.18466187 128.70995283 C164.04830441 132.67559192 163.6049726 136.47514879 163.05767822 140.40297651 C162.72767822 140.40297651 162.39767822 140.40297651 162.05767822 140.40297651 C162.05181198 139.44434706 162.04594574 138.4857176 162.03990173 137.49803877 C161.98237266 128.40766388 161.90945726 119.31752131 161.82196331 110.22738409 C161.77747674 105.55546412 161.73817451 100.88362702 161.71124268 96.21157026 C161.68499085 91.6920841 161.64443891 87.17292063 161.59449196 82.65363646 C161.57796965 80.94035727 161.56636523 79.22702247 161.56006432 77.51367521 C161.47574754 56.66933025 157.62666057 37.65052032 143.05767822 21.84047651 C128.47359632 7.8671183 109.99182164 4.27051524 90.43145752 4.22597456 C89.17187729 4.21940336 87.91229706 4.21283216 86.61454773 4.20606184 C82.45367683 4.18513501 78.29280609 4.17466422 74.13189697 4.16469526 C72.69006648 4.16064226 71.24823616 4.15652518 69.80640602 4.15234518 C63.0232738 4.13331168 56.24015228 4.11908164 49.45699853 4.11073321 C41.67537989 4.10099344 33.89404817 4.07475212 26.11253041 4.03423232 C20.0679944 4.00385873 14.02353958 3.9892441 7.97892886 3.9859522 C4.38339725 3.98362414 0.78817266 3.97496362 -2.80727577 3.94949102 C-26.9031981 3.78777928 -50.24736801 4.4053811 -68.81121826 21.87099409 C-80.16404474 33.36628439 -87.01819234 51.07104678 -87.0894928 67.09726667 C-87.0966481 68.20844358 -87.10380341 69.31962049 -87.11117554 70.46446943 C-87.11386444 71.66918898 -87.11655334 72.87390852 -87.11932373 74.11513472 C-87.12589493 75.39568235 -87.13246613 76.67622999 -87.13923645 77.9955821 C-87.16019279 82.23162811 -87.17063718 86.46767409 -87.18060303 90.70375776 C-87.184655 92.17006336 -87.18877205 93.63636877 -87.19295311 95.10267401 C-87.21199347 102.00060388 -87.2262218 108.8985232 -87.23456508 115.79647428 C-87.244306 123.71621192 -87.27054746 131.63566773 -87.31106597 139.55530626 C-87.34141854 145.7025657 -87.35605226 151.84974531 -87.35934609 157.99707812 C-87.36167663 161.65574752 -87.37037064 165.31411557 -87.39580727 168.97270346 C-87.4944641 183.93440383 -87.51069055 198.02757242 -82.94232178 212.40297651 C-82.56100149 213.71455272 -82.18386855 215.02735443 -81.81117249 216.3414073 C-81.52445175 217.35172514 -81.23773102 218.36204298 -80.94232178 219.40297651 C-83.97152416 217.88837532 -84.24089258 215.64143631 -85.44232178 212.52797651 C-86.07654053 210.9230937 -86.07654053 210.9230937 -86.72357178 209.28578901 C-89.64826545 200.71394165 -90.28546156 191.75841771 -90.55462646 182.77065229 C-90.59208355 181.68969849 -90.62954063 180.60874468 -90.66813278 179.49503469 C-91.04353269 167.8383021 -91.1250121 156.1820843 -91.14544678 144.52016401 C-91.14827415 143.40339403 -91.15110153 142.28662405 -91.15401459 141.13601255 C-91.16880781 135.25071446 -91.17816754 129.36543972 -91.18255615 123.48012495 C-91.1880807 117.45683383 -91.2122491 111.43376416 -91.24052811 105.41054296 C-91.25923556 100.71761653 -91.26436391 96.02474337 -91.26589203 91.33178282 C-91.26888948 89.11129851 -91.27681758 86.89081446 -91.29007721 84.67036772 C-91.42716168 60.0017793 -87.96663363 37.42857497 -70.34075928 18.71938276 C-51.05966993 0.09774435 -25.14559621 -0.07303448 0 0 Z " fill="#FDFEFF" transform="translate(90.94232177734375,-0.40297651290893555)"/>
<path d="M0 0 C1.31790024 -0.00029205 2.63580048 -0.00058411 3.99363708 -0.00088501 C7.58607941 -0.00145597 11.17838664 0.01025652 14.77079773 0.02426291 C18.53306381 0.03681326 22.2953334 0.03794415 26.05761719 0.04031372 C33.17244828 0.04651589 40.28721749 0.06290951 47.40202141 0.0830127 C55.50603434 0.10541115 63.61005032 0.11637503 71.71408653 0.12640357 C88.37583342 0.14727693 105.03751817 0.18242819 121.69921875 0.22705078 C121.69921875 0.88705078 121.69921875 1.54705078 121.69921875 2.22705078 C122.71628906 2.283125 122.71628906 2.283125 123.75390625 2.34033203 C138.81099636 3.4039215 151.3322528 9.01003059 161.69921875 20.22705078 C163.71507283 23.17883711 165.04716655 25.70596891 165.69921875 29.22705078 C163.01592805 26.62042553 160.51408377 24.04156192 158.19921875 21.10205078 C155.82245214 18.36876918 153.797961 16.99776064 150.69921875 15.22705078 C150.69921875 14.56705078 150.69921875 13.90705078 150.69921875 13.22705078 C149.03297882 12.55931827 147.36619553 11.89294164 145.69921875 11.22705078 C144.69246094 10.82486328 143.68570313 10.42267578 142.6484375 10.00830078 C129.62719798 4.89337077 118.1478477 3.0756828 104.20703125 3.08178711 C102.53426872 3.07674919 102.53426872 3.07674919 100.82771301 3.0716095 C97.15987008 3.06215195 93.4920731 3.06015871 89.82421875 3.05908203 C87.25463849 3.05586485 84.6850584 3.05250043 82.11547852 3.04899597 C76.73241677 3.04301696 71.349373 3.04111166 65.96630859 3.04174805 C59.78788139 3.04234671 53.60954209 3.03183111 47.43113708 3.01600438 C41.443076 3.00122424 35.45506168 2.99776353 29.46697998 2.99835777 C26.94113813 2.99718677 24.41529545 2.99281513 21.88946533 2.98502541 C-11.92728188 1.94835599 -11.92728188 1.94835599 -41.30078125 16.22705078 C-42.26886719 17.08298828 -43.23695312 17.93892578 -44.234375 18.82080078 C-58.1092904 31.48817965 -63.77991438 49.40569153 -64.78100586 67.93603516 C-65.03299195 75.28211323 -65.0498286 82.6273868 -65.05078125 89.97705078 C-65.07258076 93.73577118 -65.1012333 97.49438869 -65.13122559 101.25305176 C-65.15027748 103.65399218 -65.16670228 106.0549551 -65.18029785 108.45593262 C-65.24260637 117.07875603 -65.58102897 125.63354331 -66.30078125 134.22705078 C-66.63078125 134.22705078 -66.96078125 134.22705078 -67.30078125 134.22705078 C-67.63078125 112.11705078 -67.96078125 90.00705078 -68.30078125 67.22705078 C-68.63078125 88.67705078 -68.96078125 110.12705078 -69.30078125 132.22705078 C-69.63078125 132.22705078 -69.96078125 132.22705078 -70.30078125 132.22705078 C-70.3941044 122.33352713 -70.46485867 112.44011088 -70.50802994 102.54623413 C-70.52876635 97.95042194 -70.55682363 93.35491432 -70.60253906 88.75927734 C-70.64650134 84.31124954 -70.67002272 79.86351176 -70.68029022 75.4152832 C-70.68759241 73.73148035 -70.70184701 72.04769053 -70.72370148 70.36401367 C-70.87590695 58.13416776 -70.42269739 45.20030482 -64.30078125 34.22705078 C-63.97078125 35.21705078 -63.64078125 36.20705078 -63.30078125 37.22705078 C-61.65522426 35.99895987 -61.65522426 35.99895987 -60.30078125 34.22705078 C-60.52835856 32.06405867 -60.52835856 32.06405867 -61.30078125 30.22705078 C-60.59953125 29.89705078 -59.89828125 29.56705078 -59.17578125 29.22705078 C-56.50530492 27.36932811 -55.42122841 26.18777578 -53.61328125 23.60205078 C-48.36734993 16.28749191 -41.8878256 10.18810056 -33.30078125 7.22705078 C-31.31945303 6.37791012 -29.34049052 5.52323866 -27.36328125 4.66455078 C-18.03853433 0.63595891 -10.06371416 -0.05866115 0 0 Z " fill="#39D0FD" transform="translate(73.30078125,6.77294921875)"/>
<path d="M0 0 C1 1 1 1 1.5 3.625 C0.5912619 9.75898217 -5.12371342 13.43708248 -9.875 17.0625 C-29.43087254 31.22763878 -51.16921116 40.51130043 -75.625 40.125 C-77.27435547 40.11146484 -77.27435547 40.11146484 -78.95703125 40.09765625 C-81.63825758 40.07434124 -84.31900607 40.0416204 -87 40 C-87 39.67 -87 39.34 -87 39 C-81.96145894 38.16788724 -77.1874338 37.8921466 -72.0625 37.9375 C-71.03672852 37.94426758 -71.03672852 37.94426758 -69.99023438 37.95117188 C-68.32678396 37.9628044 -66.6633795 37.98073306 -65 38 C-65 37.34 -65 36.68 -65 36 C-63.87980469 35.79503906 -62.75960937 35.59007812 -61.60546875 35.37890625 C-60.13279176 35.10688311 -58.66013664 34.83474151 -57.1875 34.5625 C-56.44951172 34.42779297 -55.71152344 34.29308594 -54.95117188 34.15429688 C-51.88684924 33.58580263 -48.96071047 32.98690349 -46 32 C-49.92853708 31.77551217 -52.39079351 32.53913071 -56 34 C-62.18160122 35.17392958 -68.28530599 35.14900457 -74.5625 35.125 C-75.57763672 35.12886719 -76.59277344 35.13273437 -77.63867188 35.13671875 C-82.53521494 35.13032222 -87.1887767 35.03626348 -92 34 C-92 33.34 -92 32.68 -92 32 C-91.24904053 32.00523682 -90.49808105 32.01047363 -89.72436523 32.01586914 C-86.29541879 32.03675961 -82.86648579 32.04969845 -79.4375 32.0625 C-78.25607422 32.07087891 -77.07464844 32.07925781 -75.85742188 32.08789062 C-70.13136928 32.10392999 -64.63605518 32.0510705 -59 31 C-59.66 30.34 -60.32 29.68 -61 29 C-60.030625 28.79246094 -59.06125 28.58492187 -58.0625 28.37109375 C-38.14343115 23.88748422 -22.69774916 15.26095009 -7.4375 1.65234375 C-4.66160176 -0.22939496 -3.28474456 -0.45051184 0 0 Z " fill="#263244" transform="translate(203,164)"/>
<path d="M0 0 C2.03205394 3.0480809 2.27084513 3.83468681 2.4140625 7.296875 C2.45305664 8.1616748 2.49205078 9.02647461 2.53222656 9.91748047 C2.5628418 10.85221191 2.59345703 11.78694336 2.625 12.75 C2.66077148 13.72211426 2.69654297 14.69422852 2.73339844 15.69580078 C2.83778091 18.79695446 2.92160533 21.89808724 3 25 C3.02868164 25.9993457 3.05736328 26.99869141 3.08691406 28.02832031 C3.7103052 52.10384402 0.55148756 73.81100516 -16.5625 92.1875 C-32.74614732 107.61100631 -54.06378096 111.40815019 -75.6875 111.1875 C-77.04068851 111.17925835 -78.39387869 111.17128713 -79.74707031 111.16357422 C-88.583542 111.09834881 -97.41822291 110.92085114 -106.25 110.625 C-107.29631592 110.5943042 -108.34263184 110.5636084 -109.4206543 110.53198242 C-110.85985229 110.47361206 -110.85985229 110.47361206 -112.328125 110.4140625 C-113.57964355 110.36693115 -113.57964355 110.36693115 -114.85644531 110.31884766 C-117 110 -117 110 -120 108 C-118.86939148 107.99453156 -118.86939148 107.99453156 -117.71594238 107.98895264 C-110.5391712 107.95075391 -103.36290104 107.89354952 -96.18645477 107.81609726 C-92.49879937 107.77693875 -88.81137146 107.74459839 -85.12353516 107.72900391 C-57.91720888 107.8624317 -57.91720888 107.8624317 -32.4375 99.125 C-31.77041016 98.77477783 -31.10332031 98.42455566 -30.41601562 98.0637207 C-17.20725302 90.9501839 -8.9983062 79.06602984 -4 65 C-1.60751257 56.38749233 -0.54153539 48.27576823 -0.48828125 39.35546875 C-0.46135445 37.65176872 -0.46135445 37.65176872 -0.43388367 35.91365051 C-0.38033905 32.33830316 -0.34606563 28.76308486 -0.3125 25.1875 C-0.27927757 22.7415187 -0.24478348 20.29555432 -0.20898438 17.84960938 C-0.12464565 11.89985561 -0.05606341 5.95008389 0 0 Z " fill="#FDFDFF" transform="translate(253,145)"/>
<path d="M0 0 C15.77812258 -0.07036565 31.55620215 -0.1231222 47.33444309 -0.15543652 C54.66206194 -0.17084551 61.98958277 -0.19181945 69.31713867 -0.22631836 C75.71063288 -0.25640502 82.10405604 -0.27561825 88.49761909 -0.28226548 C91.8768192 -0.28614547 95.25581622 -0.29513601 98.63495064 -0.31719017 C124.43052224 -0.46685712 145.81499891 1.29258668 165.375 19.9375 C169.35348716 24.02233037 171.8549218 27.73480806 174 33 C173.34 33 172.68 33 172 33 C171.67 33.99 171.34 34.98 171 36 C170.01 35.67 169.02 35.34 168 35 C167.5978125 33.7315625 167.5978125 33.7315625 167.1875 32.4375 C164.14688152 23.63570965 157.7118696 18.75621914 150 14 C148.94554687 13.319375 147.89109375 12.63875 146.8046875 11.9375 C142.46762657 9.48271528 137.92052944 8.65141383 133.0625 7.75 C132.18787109 7.57726562 131.31324219 7.40453125 130.41210938 7.2265625 C128.27690954 6.80652319 126.13872975 6.40167951 124 6 C124 5.34 124 4.68 124 4 C98.59 4 73.18 4 47 4 C47 3.67 47 3.34 47 3 C68.12 2.67 89.24 2.34 111 2 C74.37 1.67 37.74 1.34 0 1 C0 0.67 0 0.34 0 0 Z " fill="#4AD4FD" transform="translate(71,3)"/>
<path d="M0 0 C1.5 1.3125 1.5 1.3125 3 3 C3 3.99 3 4.98 3 6 C3.66 6 4.32 6 5 6 C3.93394641 21.7242905 -2.20902431 38.15692627 -14 49 C-25.92214804 59.06290631 -41.06196716 66.53523245 -57 66 C-57 65.34 -57 64.68 -57 64 C-57.99 64 -58.98 64 -60 64 C-60 63.34 -60 62.68 -60 62 C-59.12859375 61.89042969 -58.2571875 61.78085938 -57.359375 61.66796875 C-49.40429817 60.60901372 -41.73816576 59.12586971 -34 57 C-34 56.34 -34 55.68 -34 55 C-32.1640625 53.80859375 -32.1640625 53.80859375 -29.625 52.4375 C-24.52139237 49.4972993 -20.40158889 45.98576929 -16.12890625 41.953125 C-14 40 -14 40 -11 38 C-9.78715124 34.94570927 -9.78715124 34.94570927 -9 32 C-8.34 32 -7.68 32 -7 32 C-3.30735723 21.44959209 -0.6390871 11.19504302 0 0 Z " fill="#6A9FFB" transform="translate(248,187)"/>
<path d="M0 0 C1 2 1 2 0.43359375 3.8828125 C-5.33322249 16.86380279 -14.63403016 26.72718621 -28 32 C-34.4329203 34.33707175 -40.48096008 34.2577745 -47.27734375 34.1953125 C-48.4438295 34.1924826 -49.61031525 34.18965271 -50.81214905 34.18673706 C-54.52070576 34.17558388 -58.22901685 34.15048786 -61.9375 34.125 C-64.45898088 34.11496393 -66.98046555 34.10583918 -69.50195312 34.09765625 C-75.6680519 34.07566044 -81.83400839 34.04223118 -88 34 C-86.02 33.505 -86.02 33.505 -84 33 C-84 32.34 -84 31.68 -84 31 C-84.70125 31.103125 -85.4025 31.20625 -86.125 31.3125 C-90.30732311 30.85789966 -91.95201113 28.83533849 -95 26 C-94.67 25.34 -94.34 24.68 -94 24 C-93.319375 24.45375 -92.63875 24.9075 -91.9375 25.375 C-85.61558606 28.87222899 -79.80766631 29.30028532 -72.734375 29.265625 C-71.4233078 29.26849518 -71.4233078 29.26849518 -70.08575439 29.27142334 C-68.24352733 29.27277849 -66.4012905 29.26912906 -64.55908203 29.26074219 C-61.7722367 29.25008504 -58.98604357 29.26063357 -56.19921875 29.2734375 C-38.29382208 29.28968468 -24.30911827 27.43874779 -10.64453125 14.734375 C-8.9217214 13.08585935 -8.9217214 13.08585935 -8 11 C-7.34 11 -6.68 11 -6 11 C-5.62875 9.948125 -5.62875 9.948125 -5.25 8.875 C-3.83911974 5.62997541 -2.02104602 2.89683263 0 0 Z " fill="#ACCAFC" transform="translate(232,201)"/>
<path d="M0 0 C0 3.45115982 -0.94723573 5.62591836 -2.24609375 8.76953125 C-3.08511499 11.04316587 -3.08511499 11.04316587 -3.42089844 13.69628906 C-4 17 -4 17 -4.94848633 20.30053711 C-8.89070283 34.247914 -8.6366876 48.16041805 -8.6875 62.5625 C-8.72626536 67.56387252 -8.77498545 72.56512732 -8.82421875 77.56640625 C-8.83395721 78.74949371 -8.84369568 79.93258118 -8.85372925 81.15151978 C-8.93987041 89.79791004 -9.28389392 98.38232385 -10 107 C-10.33 107 -10.66 107 -11 107 C-11.33 84.89 -11.66 62.78 -12 40 C-12.33 61.45 -12.66 82.9 -13 105 C-13.33 105 -13.66 105 -14 105 C-14.09332315 95.10647635 -14.16407742 85.2130601 -14.20724869 75.31918335 C-14.2279851 70.72337116 -14.25604238 66.12786354 -14.30175781 61.53222656 C-14.34572009 57.08419876 -14.36924147 52.63446098 -14.37950897 48.18823242 C-14.38681116 46.50442957 -14.40106576 44.82063975 -14.42292023 43.13696289 C-14.5751257 30.90711698 -14.12191614 17.97325403 -8 7 C-7.67 7.99 -7.34 8.98 -7 10 C-5.35444301 8.77190909 -5.35444301 8.77190909 -4 7 C-4.22757731 4.83700789 -4.22757731 4.83700789 -5 3 C-3.35 2.01 -1.7 1.02 0 0 Z " fill="#45BCFC" transform="translate(17,34)"/>
<path d="M0 0 C0 0.99 0 1.98 0 3 C-0.74507813 3.25652344 -1.49015625 3.51304687 -2.2578125 3.77734375 C-5.12874482 5.05740332 -6.66098453 6.36182197 -8.875 8.5625 C-26.16458262 24.361107 -50.43476704 33.21344257 -73.5625 33.125 C-74.57763672 33.12886719 -75.59277344 33.13273437 -76.63867188 33.13671875 C-81.53521494 33.13032222 -86.1887767 33.03626348 -91 32 C-91 31.34 -91 30.68 -91 30 C-90.24904053 30.00523682 -89.49808105 30.01047363 -88.72436523 30.01586914 C-85.29541879 30.03675961 -81.86648579 30.04969845 -78.4375 30.0625 C-77.25607422 30.07087891 -76.07464844 30.07925781 -74.85742188 30.08789062 C-69.13136928 30.10392999 -63.63605518 30.0510705 -58 29 C-58.66 28.34 -59.32 27.68 -60 27 C-59.030625 26.79246094 -58.06125 26.58492187 -57.0625 26.37109375 C-42.37170246 23.06432272 -29.75551595 17.86770864 -17.671875 8.8203125 C-15.21459312 7.1461994 -13.79727083 6.65230475 -11 6 C-9.14038152 4.52780203 -7.4863999 2.92436354 -5.78125 1.27734375 C-4 0 -4 0 0 0 Z " fill="#4A5564" transform="translate(202,166)"/>
<path d="M0 0 C2.2109375 1.71484375 2.2109375 1.71484375 4.375 3.9375 C27.3738766 25.62412838 54.65141868 29.83737994 85 29 C84.67 29.66 84.34 30.32 84 31 C78.24467797 32.2189556 72.48744679 32.15045201 66.625 32.125 C65.71105469 32.12886719 64.79710938 32.13273437 63.85546875 32.13671875 C62.55416016 32.13478516 62.55416016 32.13478516 61.2265625 32.1328125 C60.04441162 32.13112061 60.04441162 32.13112061 58.83837891 32.12939453 C57 32 57 32 56 31 C54.28011633 30.68690925 52.5590742 30.37908772 50.83325195 30.10058594 C42.65662951 28.76463989 35.47781232 26.66892663 28 23 C26.42992188 22.24396484 26.42992188 22.24396484 24.828125 21.47265625 C15.7761505 16.87087496 6.8512518 11.11160521 -0.18359375 3.69921875 C-1.95058521 1.65842144 -1.95058521 1.65842144 -5 2 C-5.33 2.99 -5.66 3.98 -6 5 C-4.68 4.67 -3.36 4.34 -2 4 C-1.78601562 4.56589844 -1.57203125 5.13179687 -1.3515625 5.71484375 C1.02050118 9.72541385 5.00299443 12.08840064 8.6640625 14.87890625 C9.43492188 15.57886719 10.20578125 16.27882812 11 17 C11 17.99 11 18.98 11 20 C11.70511719 20.26554687 12.41023438 20.53109375 13.13671875 20.8046875 C16.15567786 22.06498967 18.95185076 23.53957994 21.8125 25.125 C22.78832031 25.66382813 23.76414062 26.20265625 24.76953125 26.7578125 C25.50558594 27.16773438 26.24164063 27.57765625 27 28 C26.67 28.66 26.34 29.32 26 30 C13.88759099 23.62918747 1.08154317 16.50053429 -8 6 C-8.25 2.75 -8.25 2.75 -8 0 C-5.02878399 -1.485608 -3.17083885 -0.81434695 0 0 Z " fill="#141D28" transform="translate(60,165)"/>
<path d="M0 0 C1.25797394 -0.0065712 2.51594788 -0.0131424 3.81204224 -0.01991272 C7.9681066 -0.04084125 12.12417081 -0.05131156 16.28027344 -0.0612793 C17.72084318 -0.06533245 19.16141274 -0.06944953 20.60198212 -0.07362938 C27.38031097 -0.09266447 34.15862913 -0.10689331 40.93697953 -0.11524135 C48.71009835 -0.12497708 56.48292962 -0.151207 64.25594735 -0.19174224 C70.29540348 -0.22213354 76.33477833 -0.23673216 82.3743093 -0.24002236 C85.96596067 -0.24234874 89.55730444 -0.25098614 93.14887238 -0.27648354 C139.49113237 -0.58766228 139.49113237 -0.58766228 156.69433594 16.30200195 C160.12308343 19.95933261 162.46900854 23.20554649 163.38964844 28.17700195 C160.70635773 25.5703767 158.20451346 22.99151309 155.88964844 20.05200195 C153.51288183 17.31872035 151.48839069 15.94771181 148.38964844 14.17700195 C148.38964844 13.51700195 148.38964844 12.85700195 148.38964844 12.17700195 C146.72340851 11.50926944 145.05662522 10.84289281 143.38964844 10.17700195 C142.38289062 9.77481445 141.37613281 9.37262695 140.33886719 8.95825195 C127.31762767 3.84332194 115.83827739 2.02563397 101.89746094 2.03173828 C100.78228592 2.02837967 99.6671109 2.02502106 98.5181427 2.02156067 C94.85029977 2.01210312 91.18250279 2.01010989 87.51464844 2.0090332 C84.94506817 2.00581602 82.37548809 2.00245161 79.8059082 1.99894714 C74.42284645 1.99296813 69.03980269 1.99106283 63.65673828 1.99169922 C57.47831108 1.99229788 51.29997178 1.98178228 45.12156677 1.96595556 C39.13350569 1.95117542 33.14549137 1.9477147 27.15740967 1.94830894 C24.63156781 1.94713794 22.10572513 1.9427663 19.57989502 1.93497658 C6.01860682 1.8970817 -7.1875 2.12956185 -20.61035156 4.17700195 C-22.9436238 4.51076269 -25.27693906 4.84422328 -27.61035156 5.17700195 C-21.05214039 -1.38120922 -8.53966831 0.01947149 0 0 Z " fill="#1CC7FC" transform="translate(75.6103515625,7.822998046875)"/>
<path d="M0 0 C2.5 0.25 2.5 0.25 4.5 2.25 C4.75878906 4.28125 4.75878906 4.28125 4.765625 6.75 C4.76820312 7.636875 4.77078125 8.52375 4.7734375 9.4375 C4.76570313 10.365625 4.75796875 11.29375 4.75 12.25 C4.75773437 13.178125 4.76546875 14.10625 4.7734375 15.0625 C4.77085938 15.949375 4.76828125 16.83625 4.765625 17.75 C4.76336914 18.5646875 4.76111328 19.379375 4.75878906 20.21875 C4.5 22.25 4.5 22.25 2.5 24.25 C0 24.5 0 24.5 -2.5 24.25 C-4.94986932 21.80013068 -4.75631311 21.112922 -4.765625 17.75 C-4.76820312 16.863125 -4.77078125 15.97625 -4.7734375 15.0625 C-4.76183594 13.6703125 -4.76183594 13.6703125 -4.75 12.25 C-4.75773437 11.321875 -4.76546875 10.39375 -4.7734375 9.4375 C-4.77085938 8.550625 -4.76828125 7.66375 -4.765625 6.75 C-4.76336914 5.9353125 -4.76111328 5.120625 -4.75878906 4.28125 C-4.34665367 1.04637599 -3.15325081 0.31532508 0 0 Z " fill="#1E2325" transform="translate(74.5,76.75)"/>
<path d="M0 0 C2.5 0.25 2.5 0.25 4.5 2.25 C4.75878906 4.28125 4.75878906 4.28125 4.765625 6.75 C4.76820313 7.636875 4.77078125 8.52375 4.7734375 9.4375 C4.76570312 10.365625 4.75796875 11.29375 4.75 12.25 C4.75773438 13.178125 4.76546875 14.10625 4.7734375 15.0625 C4.77085937 15.949375 4.76828125 16.83625 4.765625 17.75 C4.76336914 18.5646875 4.76111328 19.379375 4.75878906 20.21875 C4.5 22.25 4.5 22.25 2.5 24.25 C0 24.5625 0 24.5625 -2.5 24.25 C-4.57477826 21.13783261 -4.75522588 20.40939492 -4.765625 16.87109375 C-4.76820313 16.03255859 -4.77078125 15.19402344 -4.7734375 14.33007812 C-4.76570312 13.45802734 -4.75796875 12.58597656 -4.75 11.6875 C-4.75773438 10.81158203 -4.76546875 9.93566406 -4.7734375 9.03320312 C-4.77085937 8.19595703 -4.76828125 7.35871094 -4.765625 6.49609375 C-4.76336914 5.72966553 -4.76111328 4.9632373 -4.75878906 4.17358398 C-4.33145426 0.99719636 -3.07346913 0.30734691 0 0 Z " fill="#303031" transform="translate(181.5,76.75)"/>
<path d="M0 0 C2.31 0 4.62 0 7 0 C6.95359375 0.97839844 6.9071875 1.95679688 6.859375 2.96484375 C6.64763204 10.65565038 6.51087623 17.39743995 11 24 C13.73275841 26.82091191 16.14760444 27.46494506 20 28 C20 28.66 20 29.32 20 30 C14.96117391 30.62985326 11.97977742 29.36934309 7.8984375 26.6328125 C3.94723403 23.23445231 1.63010015 18.89030044 0 14 C-0.06970052 11.60509014 -0.08448003 9.20832309 -0.0625 6.8125 C-0.05347656 5.54019531 -0.04445313 4.26789063 -0.03515625 2.95703125 C-0.02355469 1.98121094 -0.01195313 1.00539062 0 0 Z " fill="#C4DAFD" transform="translate(128,204)"/>
<path d="M0 0 C0.66 0.33 1.32 0.66 2 1 C0.54550599 2.0055761 -0.91372443 3.00430435 -2.375 4 C-3.18710938 4.556875 -3.99921875 5.11375 -4.8359375 5.6875 C-7 7 -7 7 -9 7 C-9 7.66 -9 8.32 -9 9 C-12.28053875 10.83044554 -15.47126201 11.72170005 -19.125 12.5625 C-20.17945313 12.81128906 -21.23390625 13.06007812 -22.3203125 13.31640625 C-31.25203244 14.97569605 -40.05914965 15.13102096 -49.125 15.0625 C-50.27226562 15.05798828 -51.41953125 15.05347656 -52.6015625 15.04882812 C-55.40109813 15.03716339 -58.20051986 15.02079614 -61 15 C-61.33 14.34 -61.66 13.68 -62 13 C-61.09459473 12.96559814 -60.18918945 12.93119629 -59.25634766 12.89575195 C-27.58335437 12.95898998 -27.58335437 12.95898998 0 0 Z " fill="#4683F9" transform="translate(223,235)"/>
<path d="M0 0 C3.62889606 0.58062337 5.2797834 1.955274 7.875 4.5 C22.28363353 17.70199919 41.4192078 27.43353662 61 29 C61 29.33 61 29.66 61 30 C47.56038645 33.19388463 34.10016866 25.82194129 22.77246094 19.10888672 C16.61848382 15.25883657 10.93627119 10.73660225 5.5 5.9375 C3.00020584 3.59161889 3.00020584 3.59161889 -1 4 C-0.67 2.68 -0.34 1.36 0 0 Z " fill="#34363A" transform="translate(55,166)"/>
<path d="M0 0 C3.30030643 1.42605833 5.98384826 3.44543689 8.82128906 5.63061523 C20.39965997 14.51433388 33.00201466 21.67664816 47 26 C41.36885338 27.68056492 35.63093806 26.2317677 30 25 C30 24.34 30 23.68 30 23 C28.824375 22.690625 28.824375 22.690625 27.625 22.375 C21.21264195 19.94272626 15.05956282 17.31415753 12 11 C9.93927814 9.16439946 9.93927814 9.16439946 7.5625 7.5 C4.45603483 5.24819658 2.16772875 3.17840615 0 0 Z " fill="#1D1F21" transform="translate(57,170)"/>
<path d="M0 0 C0.99 0 1.98 0 3 0 C3.02475223 5.88988947 3.04288482 11.77974854 3.05493164 17.66967773 C3.05995478 19.67261279 3.06677445 21.67554419 3.07543945 23.6784668 C3.08759345 26.56039331 3.09324857 29.44227125 3.09765625 32.32421875 C3.10281754 33.21711105 3.10797882 34.11000336 3.11329651 35.029953 C3.113667 39.1527264 3.04768418 42.97964792 2 47 C1.34 47 0.68 47 0 47 C0 31.49 0 15.98 0 0 Z " fill="#E5F1FE" transform="translate(129,147)"/>
<path d="M0 0 C0.33 0 0.66 0 1 0 C2.03026944 6.69675136 2.10152799 13.2314676 2 20 C1.34 20 0.68 20 0 20 C0.04640625 20.6084375 0.0928125 21.216875 0.140625 21.84375 C0.39303628 27.97373813 -0.33990958 33.45741852 -1.8125 39.375 C-1.97782227 40.05240234 -2.14314453 40.72980469 -2.31347656 41.42773438 C-3.34817927 45.3599944 -4.58151692 48.71187864 -7 52 C-7.66 52 -8.32 52 -9 52 C-9.12375 52.969375 -9.2475 53.93875 -9.375 54.9375 C-10.9753965 60.76580965 -16.33369926 64.52392124 -21 68 C-21.66 68 -22.32 68 -23 68 C-23 67.34 -23 66.68 -23 66 C-21.85079284 64.97616089 -20.65340952 64.00615653 -19.4375 63.0625 C-8.09719333 53.36804315 -3.00091758 38.55138365 -1.84082031 24.00390625 C-1.5937815 20.33645759 -1.40050396 16.66727476 -1.21875 12.99609375 C-0.99754028 8.63641876 -0.55112529 4.3302701 0 0 Z " fill="#3F8AFA" transform="translate(248,167)"/>
<path d="M0 0 C-3 2 -3 2 -4.953125 2.76171875 C-17.49474808 7.81676071 -27.94238828 19.66444251 -33.21484375 31.90234375 C-33.47394531 32.59457031 -33.73304687 33.28679688 -34 34 C-35 32 -35 32 -33.8125 28.375 C-33.22078784 26.91156903 -32.61623045 25.45327682 -32 24 C-31.5978125 22.99839844 -31.5978125 22.99839844 -31.1875 21.9765625 C-28.60975032 16.15361009 -24.68912491 12.22774515 -20 8 C-19.154375 7.236875 -18.30875 6.47375 -17.4375 5.6875 C-14.40680926 3.58932948 -11.42740884 2.35802992 -8 1 C-5.29120665 -0.35439668 -2.99066732 -0.06501451 0 0 Z " fill="#21C7FD" transform="translate(48,13)"/>
<path d="M0 0 C0.66 0 1.32 0 2 0 C9.31813962 15.86216049 10.24131363 34.90998355 8 52 C5.5362445 48.30436675 5.82248293 46.5811522 5.9375 42.1875 C5.9537936 40.82295182 5.96674284 39.45836012 5.9765625 38.09375 C5.98204102 37.40539062 5.98751953 36.71703125 5.99316406 36.0078125 C6.02970023 25.27661762 4.1296993 15.84440401 1.05859375 5.640625 C0 2 0 2 0 0 Z " fill="#23B7FC" transform="translate(241,39)"/>
<path d="M0 0 C2.31 0 4.62 0 7 0 C7 0.66 7 1.32 7 2 C7.66 2.66 8.32 3.32 9 4 C1.31637792 5.66297891 -5.96119058 6.28583545 -13.8125 6.1875 C-15.30813477 6.1865332 -15.30813477 6.1865332 -16.83398438 6.18554688 C-21.66098986 6.15664265 -26.25654744 6.00667499 -31 5 C-31 4.34 -31 3.68 -31 3 C-30.24904053 3.00523682 -29.49808105 3.01047363 -28.72436523 3.01586914 C-25.29541879 3.03675961 -21.86648579 3.04969845 -18.4375 3.0625 C-17.25607422 3.07087891 -16.07464844 3.07925781 -14.85742188 3.08789062 C-9.13136928 3.10392999 -3.63605518 3.0510705 2 2 C1.34 1.34 0.68 0.68 0 0 Z " fill="#434952" transform="translate(142,193)"/>
<path d="M0 0 C0.65355469 0.59748047 0.65355469 0.59748047 1.3203125 1.20703125 C1.91585937 1.73683594 2.51140625 2.26664063 3.125 2.8125 C3.99511719 3.59560547 3.99511719 3.59560547 4.8828125 4.39453125 C11.46371209 9.38484441 17.18564066 9.46644762 25.1796875 9.51171875 C26.3475882 9.52966995 27.51548889 9.54762115 28.71878052 9.56611633 C32.43748397 9.62016228 36.15605946 9.65409778 39.875 9.6875 C42.40105945 9.720678 44.92710203 9.7551681 47.453125 9.79101562 C53.63530192 9.87588569 59.81749551 9.94425995 66 10 C66 10.33 66 10.66 66 11 C58.92065094 11.24576979 51.84084984 11.45774672 44.75976562 11.64697266 C42.35426278 11.71515658 39.948961 11.79089037 37.54394531 11.87451172 C34.07382999 11.99382389 30.60388259 12.08537891 27.1328125 12.171875 C25.53688766 12.23565338 25.53688766 12.23565338 23.90872192 12.30072021 C15.78747665 12.462483 8.03800752 11.14733139 1.875 5.4375 C0 3 0 3 0 0 Z " fill="#4A8AF9" transform="translate(131,225)"/>
<path d="M0 0 C1.134375 0.020625 2.26875 0.04125 3.4375 0.0625 C1.06610769 2.43389231 -0.47172224 2.76954937 -3.6875 3.625 C-4.59757812 3.87378906 -5.50765625 4.12257812 -6.4453125 4.37890625 C-13.55485578 5.93801662 -20.43909551 6.22010152 -27.6875 6.1875 C-28.98880859 6.19330078 -28.98880859 6.19330078 -30.31640625 6.19921875 C-34.84579798 6.1923247 -39.10563943 5.98309743 -43.5625 5.0625 C-43.5625 4.4025 -43.5625 3.7425 -43.5625 3.0625 C-42.77190186 3.07297363 -41.98130371 3.08344727 -41.16674805 3.09423828 C-37.52786536 3.13623254 -33.88903394 3.16196292 -30.25 3.1875 C-29.00669922 3.20425781 -27.76339844 3.22101563 -26.48242188 3.23828125 C-19.01058314 3.2775035 -11.81775035 2.99996644 -4.5625 1.0625 C-3.5625 0.0625 -3.5625 0.0625 0 0 Z " fill="#212327" transform="translate(155.5625,194.9375)"/>
<path d="M0 0 C1.01191406 0.30164063 2.02382812 0.60328125 3.06640625 0.9140625 C14.98333413 3.77664729 27.45728985 2.78583576 39.62890625 2.5390625 C39.29890625 3.1990625 38.96890625 3.8590625 38.62890625 4.5390625 C32.87358422 5.7580181 27.11635304 5.68951451 21.25390625 5.6640625 C20.33996094 5.66792969 19.42601563 5.67179688 18.484375 5.67578125 C17.18306641 5.67384766 17.18306641 5.67384766 15.85546875 5.671875 C14.67331787 5.67018311 14.67331787 5.67018311 13.46728516 5.66845703 C11.62890625 5.5390625 11.62890625 5.5390625 10.62890625 4.5390625 C7.94346279 3.97631485 5.26637238 3.45845227 2.56640625 2.9765625 C1.80779297 2.83798828 1.04917969 2.69941406 0.26757812 2.55664062 C-1.6113435 2.21394423 -3.49114076 1.8760552 -5.37109375 1.5390625 C-2.37109375 -0.4609375 -2.37109375 -0.4609375 0 0 Z " fill="#1B2738" transform="translate(105.37109375,191.4609375)"/>
<path d="M0 0 C-1.375 1.5 -1.375 1.5 -3 3 C-3.66 3 -4.32 3 -5 3 C-5.33 3.99 -5.66 4.98 -6 6 C-11.10916517 8.66422132 -16.32806491 9.36203841 -22 9 C-21.01 8.34 -20.02 7.68 -19 7 C-19.33 6.34 -19.66 5.68 -20 5 C-17.61009899 3.96287315 -15.21473126 2.94531981 -12.8125 1.9375 C-12.13896484 1.64294922 -11.46542969 1.34839844 -10.77148438 1.04492188 C-6.78934489 -0.60620913 -4.14809665 -1.40954741 0 0 Z " fill="#262F3B" transform="translate(176,189)"/>
<path d="M0 0 C4.875 0.875 4.875 0.875 6 2 C6.25035974 5.30516934 6.18521952 8.62396041 6.1875 11.9375 C6.19974609 12.87013672 6.21199219 13.80277344 6.22460938 14.76367188 C6.22654297 15.65505859 6.22847656 16.54644531 6.23046875 17.46484375 C6.23457764 18.285896 6.23868652 19.10694824 6.24291992 19.95288086 C6 22 6 22 4 24 C1.875 23.625 1.875 23.625 0 23 C0.66 23 1.32 23 2 23 C2.0582253 19.91674642 2.09367134 16.83363495 2.125 13.75 C2.14175781 12.87730469 2.15851563 12.00460938 2.17578125 11.10546875 C2.18222656 10.26113281 2.18867187 9.41679688 2.1953125 8.546875 C2.20578613 7.77182617 2.21625977 6.99677734 2.22705078 6.19824219 C1.97326556 3.74116461 1.22444152 2.12688458 0 0 Z " fill="#091014" transform="translate(73,77)"/>
<path d="M0 0 C4.875 0.875 4.875 0.875 6 2 C6.25035974 5.30516934 6.18521952 8.62396041 6.1875 11.9375 C6.19974609 12.87013672 6.21199219 13.80277344 6.22460938 14.76367188 C6.22654297 15.65505859 6.22847656 16.54644531 6.23046875 17.46484375 C6.23457764 18.285896 6.23868652 19.10694824 6.24291992 19.95288086 C6 22 6 22 4 24 C1.875 23.625 1.875 23.625 0 23 C0.66 23 1.32 23 2 23 C2.0582253 19.91674642 2.09367134 16.83363495 2.125 13.75 C2.14175781 12.87730469 2.15851563 12.00460938 2.17578125 11.10546875 C2.18222656 10.26113281 2.18867187 9.41679688 2.1953125 8.546875 C2.20578613 7.77182617 2.21625977 6.99677734 2.22705078 6.19824219 C1.97326556 3.74116461 1.22444152 2.12688458 0 0 Z " fill="#0D0E0E" transform="translate(180,77)"/>
<path d="M0 0 C0.99 0.99 1.98 1.98 3 3 C3 3.99 3 4.98 3 6 C3.66 6 4.32 6 5 6 C4.58846263 10.97093824 4.20399168 15.44508386 2 20 C1.34 19.34 0.68 18.68 0 18 C-0.66 18.33 -1.32 18.66 -2 19 C-1.34 12.73 -0.68 6.46 0 0 Z " fill="#60A4FB" transform="translate(248,187)"/>
<path d="M0 0 C1 2 1 2 0.3828125 4.35546875 C-1.30680273 7.58673856 -3.227597 9.12087466 -6.125 11.3125 C-7.03507813 12.00988281 -7.94515625 12.70726562 -8.8828125 13.42578125 C-9.58148438 13.94527344 -10.28015625 14.46476563 -11 15 C-12.32 14.34 -13.64 13.68 -15 13 C-10.43369266 8.12927217 -5.25023461 4.10843602 0 0 Z " fill="#76A6FA" transform="translate(236,228)"/>
<path d="M0 0 C1 1 1 1 1.5 3.625 C0.76336936 8.59725683 -2.30534137 10.81429945 -6 14 C-6.66 13.67 -7.32 13.34 -8 13 C-7.1875 11.0625 -7.1875 11.0625 -6 9 C-5.01 8.67 -4.02 8.34 -3 8 C-3 7.01 -3 6.02 -3 5 C-2.34 5 -1.68 5 -1 5 C-1 4.01 -1 3.02 -1 2 C-5.98012761 3.50912958 -9.24259942 6.55661849 -13 10 C-13 7 -13 7 -11.42578125 5.17578125 C-10.72839844 4.56089844 -10.03101563 3.94601563 -9.3125 3.3125 C-8.62800781 2.68988281 -7.94351563 2.06726563 -7.23828125 1.42578125 C-4.58469809 -0.26454659 -3.09037785 -0.36326418 0 0 Z " fill="#293D57" transform="translate(203,164)"/>
<path d="M0 0 C7.90878977 3.49540262 12.68968513 10.27593198 16 18 C15.34 18 14.68 18 14 18 C13.67 18.99 13.34 19.98 13 21 C12.01 20.67 11.02 20.34 10 20 C9.26919734 18.02253397 8.60578253 16.01927511 8 14 C7.34 13.01 6.68 12.02 6 11 C6.66 11 7.32 11 8 11 C6.63629701 8.00779732 5.05091917 5.70973471 2.875 3.25 C2.33617187 2.63640625 1.79734375 2.0228125 1.2421875 1.390625 C0.83226562 0.93171875 0.42234375 0.4728125 0 0 Z " fill="#3CCAFD" transform="translate(229,18)"/>
<path d="M0 0 C1.32 0 2.64 0 4 0 C4 5.94 4 11.88 4 18 C3.01 17.67 2.02 17.34 1 17 C-0.18681726 13.43954823 -0.09689832 10.56191663 -0.0625 6.8125 C-0.05347656 5.54019531 -0.04445313 4.26789063 -0.03515625 2.95703125 C-0.02355469 1.98121094 -0.01195313 1.00539062 0 0 Z " fill="#CDE1FD" transform="translate(128,204)"/>
<path d="M0 0 C-1.67529811 3.35059622 -5.43405601 4.10473484 -8.75 5.5 C-9.46671875 5.80808594 -10.1834375 6.11617187 -10.921875 6.43359375 C-12.94366544 7.29954443 -14.97120883 8.15061627 -17 9 C-17.92683594 9.39960938 -18.85367188 9.79921875 -19.80859375 10.2109375 C-22.60790011 11.21888739 -25.05003498 11.13720768 -28 11 C-27.67 10.34 -27.34 9.68 -27 9 C-24.98898697 8.34121987 -22.97550173 7.68942876 -20.953125 7.06640625 C-16.52474069 5.46726747 -12.34267715 3.36921431 -8.14208984 1.24926758 C-3.32167744 -1.10722581 -3.32167744 -1.10722581 0 0 Z " fill="#29394F" transform="translate(178,182)"/>
<path d="M0 0 C0.33 0 0.66 0 1 0 C2.03026944 6.69675136 2.10152799 13.2314676 2 20 C1.34 20 0.68 20 0 20 C0.02320313 20.77085937 0.04640625 21.54171875 0.0703125 22.3359375 C0.08835938 23.33882812 0.10640625 24.34171875 0.125 25.375 C0.14820313 26.37273437 0.17140625 27.37046875 0.1953125 28.3984375 C0 31 0 31 -2 33 C-1.8609223 28.43726776 -1.71256366 23.87488309 -1.5625 19.3125 C-1.52318359 18.01892578 -1.48386719 16.72535156 -1.44335938 15.39257812 C-1.40146484 14.14541016 -1.35957031 12.89824219 -1.31640625 11.61328125 C-1.27974854 10.46641846 -1.24309082 9.31955566 -1.20532227 8.13793945 C-1.02159702 5.33006722 -0.6300618 2.73774186 0 0 Z " fill="#3693FA" transform="translate(248,167)"/>
<path d="M0 0 C0.66 0 1.32 0 2 0 C2 6.6 2 13.2 2 20 C1.01 19.67 0.02 19.34 -1 19 C-1.02683987 16.02077407 -1.04676037 13.04178705 -1.0625 10.0625 C-1.07087891 9.21236328 -1.07925781 8.36222656 -1.08789062 7.48632812 C-1.09111328 6.67744141 -1.09433594 5.86855469 -1.09765625 5.03515625 C-1.10289307 4.2862915 -1.10812988 3.53742676 -1.11352539 2.76586914 C-1 1 -1 1 0 0 Z " fill="#535353" transform="translate(72,79)"/>
<path d="M0 0 C0.33 0 0.66 0 1 0 C1 8.58 1 17.16 1 26 C2.32 26.33 3.64 26.66 5 27 C2.69 27 0.38 27 -2 27 C-1.85785272 23.99978513 -1.71138304 20.99988211 -1.5625 18 C-1.52318359 17.16082031 -1.48386719 16.32164062 -1.44335938 15.45703125 C-1.18148668 10.25986542 -0.7100648 5.15542847 0 0 Z " fill="#BBD5F2" transform="translate(133,168)"/>
<path d="M0 0 C0.66 0.33 1.32 0.66 2 1 C1.13375 1.763125 0.2675 2.52625 -0.625 3.3125 C-4.87412918 7.55160765 -7.33030646 12.68311034 -10 18 C-10.41765625 18.82113281 -10.8353125 19.64226563 -11.265625 20.48828125 C-12.18931607 22.31940123 -13.09673079 24.15872047 -14 26 C-15 24 -15 24 -13.8125 20.375 C-13.22078784 18.91156903 -12.61623045 17.45327682 -12 16 C-11.731875 15.33226562 -11.46375 14.66453125 -11.1875 13.9765625 C-8.61627042 8.16833855 -4.65274907 4.24619818 0 0 Z " fill="#2BC4FC" transform="translate(28,21)"/>
<path d="M0 0 C0.99 0.33 1.98 0.66 3 1 C5.14255793 0.61067144 5.14255793 0.61067144 7 0 C7.33 0.66 7.66 1.32 8 2 C3.38 4.64 -1.24 7.28 -6 10 C-6.33 9.34 -6.66 8.68 -7 8 C-5.68 7.01 -4.36 6.02 -3 5 C-3.66 4.34 -4.32 3.68 -5 3 C-2.6875 1.4375 -2.6875 1.4375 0 0 Z " fill="#283240" transform="translate(178,184)"/>
<path d="M0 0 C1.15649929 3.46949788 0.78962862 4.57534103 -0.25 8 C-0.50265625 8.86625 -0.7553125 9.7325 -1.015625 10.625 C-2.0222053 13.05357469 -3.01984367 14.30907999 -5 16 C-6.20336061 11.06622151 -5.87353387 7.72844261 -4 3 C-1.875 1.0625 -1.875 1.0625 0 0 Z " fill="#62CEFC" transform="translate(10,45)"/>
<path d="M0 0 C3.79223404 0.57745382 5.71659108 2.24356608 8.5 4.8125 C9.2528125 5.49957031 10.005625 6.18664062 10.78125 6.89453125 C12.8904041 8.89599967 14.95571637 10.93248587 17 13 C12.05221532 13 9.27937696 9.13202214 5.69140625 5.96875 C3.01769417 3.60640111 3.01769417 3.60640111 -1 4 C-0.67 2.68 -0.34 1.36 0 0 Z " fill="#2E2F30" transform="translate(55,166)"/>
<path d="M0 0 C0.66 0.33 1.32 0.66 2 1 C2 7.93 2 14.86 2 22 C1.34 22 0.68 22 0 22 C0 16.06 0 10.12 0 4 C-0.66 4 -1.32 4 -2 4 C-1.34 2.68 -0.68 1.36 0 0 Z " fill="#545454" transform="translate(179,77)"/>
<path d="M0 0 C1.98643858 1.85744906 3.39264145 3.77806318 5 6 C1.64405503 5.4213888 0.35999139 4.35999139 -2 2 C-2.99 2 -3.98 2 -5 2 C-4.835 2.598125 -4.67 3.19625 -4.5 3.8125 C-4 6 -4 6 -4 9 C-6 7.875 -6 7.875 -8 6 C-8.25 2.8125 -8.25 2.8125 -8 0 C-4.95588012 -1.52205994 -3.23094106 -0.95027678 0 0 Z " fill="#0E151D" transform="translate(60,165)"/>
<path d="M0 0 C-0.886875 0.53625 -1.77375 1.0725 -2.6875 1.625 C-7.69960733 4.97825384 -11.12059898 9.19094229 -13 15 C-13.33 15 -13.66 15 -14 15 C-14.32394587 11.38957108 -14.36300515 9.54450773 -12.3203125 6.48046875 C-11.59585938 5.72378906 -10.87140625 4.96710937 -10.125 4.1875 C-9.40570313 3.41792969 -8.68640625 2.64835937 -7.9453125 1.85546875 C-4.96435699 -0.98781211 -3.84204965 -1.1526149 0 0 Z " fill="#2AC5FD" transform="translate(140,23)"/>
<path d="M0 0 C0.70125 0.13277344 1.4025 0.26554688 2.125 0.40234375 C7.7404558 1.44761202 13.32433509 2.3574719 19 3 C19 3.33 19 3.66 19 4 C12.05041964 5.1819983 7.38657101 5.13522577 1 2 C0.67 1.34 0.34 0.68 0 0 Z " fill="#383D43" transform="translate(97,192)"/>
<path d="M0 0 C3 3 3 3 3.29296875 5.26171875 C3.25816406 6.06222656 3.22335938 6.86273438 3.1875 7.6875 C3.16042969 8.49574219 3.13335937 9.30398437 3.10546875 10.13671875 C3.07066406 10.75160156 3.03585938 11.36648437 3 12 C2.34 12 1.68 12 1 12 C0.34 12.99 -0.32 13.98 -1 15 C-0.67 10.05 -0.34 5.1 0 0 Z " fill="#529EFB" transform="translate(248,187)"/>
<path d="M0 0 C0.66 0 1.32 0 2 0 C1.45018084 6.04801071 0.09570426 11.30601106 -2 17 C-2.33 17 -2.66 17 -3 17 C-3.40214229 10.83381819 -1.96818336 5.82254243 0 0 Z " fill="#35B2FB" transform="translate(109,89)"/>
<path d="M0 0 C3.96 0.33 7.92 0.66 12 1 C12 1.66 12 2.32 12 3 C14.31 3.66 16.62 4.32 19 5 C15.11911321 6.29362893 13.36457929 5.41911705 9.5 4.1875 C8.3553125 3.83042969 7.210625 3.47335938 6.03125 3.10546875 C3 2 3 2 0 0 Z " fill="#122135" transform="translate(88,195)"/>
<path d="M0 0 C-1.55509871 3.11019741 -3.85400688 3.69411606 -7 5 C-10.375 5.1875 -10.375 5.1875 -13 5 C-4.82022472 -1.60674157 -4.82022472 -1.60674157 0 0 Z " fill="#31445D" transform="translate(178,182)"/>
<path d="M0 0 C0.99 0.33 1.98 0.66 3 1 C0.03 3.97 -2.94 6.94 -6 10 C-6.33 9.01 -6.66 8.02 -7 7 C-4.69 4.69 -2.38 2.38 0 0 Z " fill="#0FC0FD" transform="translate(30,21)"/>
<path d="M0 0 C0.99 0.495 0.99 0.495 2 1 C1.97679687 1.94101563 1.95359375 2.88203125 1.9296875 3.8515625 C1.91164062 5.09679687 1.89359375 6.34203125 1.875 7.625 C1.85179687 8.85476562 1.82859375 10.08453125 1.8046875 11.3515625 C1.9969572 14.94316041 2.69741444 17.66661175 4 21 C3.01 20.67 2.02 20.34 1 20 C-0.47271188 16.06784345 -0.11005061 11.89056046 -0.0625 7.75 C-0.05798828 7.00492188 -0.05347656 6.25984375 -0.04882812 5.4921875 C-0.03709246 3.6614236 -0.0191585 1.83070127 0 0 Z " fill="#B1D0FC" transform="translate(133,204)"/>
<path d="M0 0 C0 0.99 0 1.98 0 3 C-1.11375 3.433125 -1.11375 3.433125 -2.25 3.875 C-4.56739797 4.82302644 -6.77917115 5.84845911 -9 7 C-6.79922603 2.09058114 -5.62803596 0 0 0 Z " fill="#4D596A" transform="translate(202,166)"/>
<path d="M0 0 C0.66 0 1.32 0 2 0 C1.40380045 4.86896303 0.43023178 9.32790951 -1 14 C-1.33 14 -1.66 14 -2 14 C-2.21192221 8.80790596 -1.5912689 4.873261 0 0 Z " fill="#2FBFFC" transform="translate(121,48)"/>
<path d="M0 0 C0.68835938 0.59748047 0.68835938 0.59748047 1.390625 1.20703125 C4.52271585 3.91142062 7.63877459 6.57991771 11 9 C7.01781501 8.72217314 5.25090158 8.20726652 2.125 5.625 C0 3 0 3 0 0 Z " fill="#5391F9" transform="translate(131,225)"/>
<path d="M0 0 C2.31 0 4.62 0 7 0 C7 0.66 7 1.32 7 2 C7.66 2.66 8.32 3.32 9 4 C6.36 4.33 3.72 4.66 1 5 C1.33 4.01 1.66 3.02 2 2 C1.34 1.34 0.68 0.68 0 0 Z " fill="#36414F" transform="translate(142,193)"/>
<path d="M0 0 C0.66 0.33 1.32 0.66 2 1 C0.8803014 2.00593243 -0.2459412 3.0045849 -1.375 4 C-2.00148437 4.556875 -2.62796875 5.11375 -3.2734375 5.6875 C-5 7 -5 7 -7 7 C-5.66667905 3.00003714 -3.5042173 2.16217663 0 0 Z " fill="#263953" transform="translate(186,174)"/>
<path d="M0 0 C0.86625 0.3403125 0.86625 0.3403125 1.75 0.6875 C-2.75 3.6875 -2.75 3.6875 -7.25 6.6875 C-6.87492618 3.96821483 -6.40781339 2.84531339 -4.4375 0.875 C-2.25 -0.3125 -2.25 -0.3125 0 0 Z " fill="#38CBFD" transform="translate(138.25,22.3125)"/>
<path d="M0 0 C1.65 0 3.3 0 5 0 C2.27521226 3.36591427 -1.06856792 4.44226276 -5 6 C-5 5.34 -5 4.68 -5 4 C-4.360625 3.71125 -3.72125 3.4225 -3.0625 3.125 C-0.84793921 2.17176549 -0.84793921 2.17176549 0 0 Z " fill="#2B3D56" transform="translate(176,188)"/>
<path d="M0 0 C0.99 0.33 1.98 0.66 3 1 C1.35 2.65 -0.3 4.3 -2 6 C-2.66 5.01 -3.32 4.02 -4 3 C-2.1875 1.4375 -2.1875 1.4375 0 0 Z " fill="#29394F" transform="translate(191,178)"/>
<path d="M0 0 C-4.625 3 -4.625 3 -8 3 C-8 2.34 -8 1.68 -8 1 C-4.93251126 -0.86240388 -3.40254489 -1.2151946 0 0 Z " fill="#262A2F" transform="translate(175,189)"/>
</svg>
